<svg width="24" height="26" viewBox="0 0 24 26" fill="none" xmlns="http://www.w3.org/2000/svg">
<path d="M21.0762 0H3.65632C2.18725 0 0.991211 1.19594 0.991211 2.67802V20.254C0.991211 21.736 2.18715 22.932 3.65621 22.932H18.3982L17.7091 20.527L19.3732 22.074L20.9461 23.53L23.7412 26V2.67802C23.7412 1.19594 22.5453 0 21.0762 0ZM16.0582 16.9781C16.0582 16.9781 15.5902 16.4191 15.2002 15.925C16.9032 15.444 17.5532 14.378 17.5532 14.378C17.0202 14.7291 16.5132 14.9761 16.0582 15.1449C15.4082 15.418 14.7842 15.5999 14.1732 15.704C12.9252 15.9379 11.7811 15.873 10.8062 15.6909C10.0652 15.5478 9.42819 15.3399 8.89517 15.132C8.59611 15.0149 8.27111 14.872 7.94611 14.69C7.90715 14.664 7.86819 14.6509 7.82913 14.625C7.80319 14.612 7.79007 14.5991 7.77715 14.586C7.54319 14.456 7.41319 14.365 7.41319 14.365C7.41319 14.365 8.03725 15.405 9.68819 15.899C9.29819 16.393 8.81725 16.978 8.81725 16.978C5.94413 16.887 4.85225 15.0021 4.85225 15.0021C4.85225 10.816 6.72423 7.42302 6.72423 7.42302C8.59621 6.01896 10.3773 6.05802 10.3773 6.05802L10.5073 6.21406C8.16725 6.8899 7.08819 7.91698 7.08819 7.91698C7.08819 7.91698 7.37413 7.76104 7.85507 7.54C9.24611 6.92896 10.3512 6.76 10.8062 6.72104C10.8841 6.70802 10.9492 6.695 11.0273 6.695C11.8984 6.58156 12.7801 6.57281 13.6533 6.66906C14.8882 6.81208 16.2142 7.17604 17.5662 7.91698C17.5662 7.91698 16.5392 6.94198 14.3292 6.26604L14.5112 6.05813C14.5112 6.05813 16.2921 6.01906 18.1642 7.42313C18.1642 7.42313 20.0363 10.816 20.0363 15.0021C20.0362 15.002 18.9312 16.887 16.0582 16.9781ZM10.0132 10.907C9.27225 10.907 8.68725 11.557 8.68725 12.3499C8.68725 13.1429 9.28517 13.7929 10.0132 13.7929C10.7542 13.7929 11.3391 13.1429 11.3391 12.3499C11.3523 11.557 10.7542 10.907 10.0132 10.907ZM14.7583 10.907C14.0173 10.907 13.4323 11.557 13.4323 12.3499C13.4323 13.1429 14.0304 13.7929 14.7583 13.7929C15.4992 13.7929 16.0842 13.1429 16.0842 12.3499C16.0841 11.557 15.4992 10.907 14.7583 10.907Z" fill="white"/>
</svg>
