<svg width="482" height="194" viewBox="0 0 482 194" fill="none" xmlns="http://www.w3.org/2000/svg">
<mask id="mask0" mask-type="alpha" maskUnits="userSpaceOnUse" x="0" y="0" width="482" height="194">
<path d="M151.996 99.9639C153.249 99.9639 154.234 100.323 154.95 101.042C155.666 101.76 156.024 102.748 156.024 104.006V140.65C156.024 141.907 155.666 142.895 154.95 143.614C154.234 144.332 153.249 144.692 151.996 144.692H140.985C140.09 144.692 139.643 145.141 139.643 146.039V186.725C139.643 187.982 139.285 188.97 138.569 189.689C137.852 190.407 136.868 190.767 135.614 190.767H93.1846C91.9314 190.767 90.9468 190.407 90.2307 189.689C89.5146 188.97 89.1565 187.982 89.1565 186.725V146.039C89.1565 145.141 88.7089 144.692 87.8138 144.692H4.02821C2.77501 144.692 1.79029 144.332 1.07417 143.614C0.358054 142.895 0 141.907 0 140.65V112.089C0 110.293 0.358054 108.586 1.07417 106.969L44.8468 5.11945C45.5629 3.14352 47.0846 2.15555 49.412 2.15555H94.7959C96.2281 2.15555 97.2128 2.60462 97.7499 3.50277C98.2869 4.40092 98.2869 5.56851 97.7499 7.00555L58.8111 98.3472C58.632 98.7065 58.632 99.0657 58.8111 99.425C58.9901 99.7843 59.2586 99.9639 59.6167 99.9639H87.8138C88.7089 99.9639 89.1565 99.5148 89.1565 98.6167V71.9417C89.1565 70.6843 89.5146 69.6963 90.2307 68.9778C90.9468 68.2593 91.9314 67.9 93.1846 67.9H135.614C136.868 67.9 137.852 68.2593 138.569 68.9778C139.285 69.6963 139.643 70.6843 139.643 71.9417V98.6167C139.643 99.5148 140.09 99.9639 140.985 99.9639H151.996Z" fill="white"/>
<path d="M242.931 194C221.627 194 204.798 188.072 192.445 176.217C180.271 164.361 174.184 148.015 174.184 127.178V65.7444C174.184 45.4463 180.271 29.4593 192.445 17.7833C204.798 5.92778 221.627 0 242.931 0C264.236 0 281.064 5.92778 293.417 17.7833C305.77 29.4593 311.947 45.4463 311.947 65.7444V127.178C311.947 147.835 305.77 164.181 293.417 176.217C281.064 188.072 264.236 194 242.931 194ZM242.931 150.619C248.66 150.619 253.136 148.823 256.358 145.231C259.76 141.458 261.461 136.339 261.461 129.872V64.1278C261.461 57.6611 259.76 52.6315 256.358 49.0389C253.136 45.2667 248.66 43.3805 242.931 43.3805C237.202 43.3805 232.727 45.2667 229.504 49.0389C226.282 52.6315 224.67 57.6611 224.67 64.1278V129.872C224.67 136.339 226.282 141.458 229.504 145.231C232.727 148.823 237.202 150.619 242.931 150.619Z" fill="white"/>
<path d="M477.972 99.9639C479.225 99.9639 480.21 100.323 480.926 101.042C481.642 101.76 482 102.748 482 104.006V140.65C482 141.907 481.642 142.895 480.926 143.614C480.21 144.332 479.225 144.692 477.972 144.692H466.962C466.066 144.692 465.619 145.141 465.619 146.039V186.725C465.619 187.982 465.261 188.97 464.545 189.689C463.828 190.407 462.844 190.767 461.591 190.767H419.161C417.908 190.767 416.923 190.407 416.207 189.689C415.491 188.97 415.133 187.982 415.133 186.725V146.039C415.133 145.141 414.685 144.692 413.79 144.692H330.004C328.751 144.692 327.766 144.332 327.05 143.614C326.334 142.895 325.976 141.907 325.976 140.65V112.089C325.976 110.293 326.334 108.586 327.05 106.969L370.823 5.11945C371.539 3.14352 373.061 2.15555 375.388 2.15555H420.772C422.204 2.15555 423.189 2.60462 423.726 3.50277C424.263 4.40092 424.263 5.56851 423.726 7.00555L384.787 98.3472C384.608 98.7065 384.608 99.0657 384.787 99.425C384.966 99.7843 385.235 99.9639 385.593 99.9639H413.79C414.685 99.9639 415.133 99.5148 415.133 98.6167V71.9417C415.133 70.6843 415.491 69.6963 416.207 68.9778C416.923 68.2593 417.908 67.9 419.161 67.9H461.591C462.844 67.9 463.828 68.2593 464.545 68.9778C465.261 69.6963 465.619 70.6843 465.619 71.9417V98.6167C465.619 99.5148 466.066 99.9639 466.962 99.9639H477.972Z" fill="white"/>
</mask>
<g mask="url(#mask0)">
<path d="M511.7 38.5C513.8 35.3 515.9 32 517.5 28.6C522.4 18 521.3 6.30001 517.8 -5.19999C510.2 -3.19999 502.4 -2.29998 494.9 -4.49998C482.9 -8.09999 474.4 -18.8 468.4 -29.8C468 -30.6 467.5 -31.5 467.1 -32.3C467.3 -24.2 469.9 -16.1 473.3 -8.79999C478.3 1.80001 485.1 11.5 489.6 22.3C492.5 29.2 494.3 37.3 493.2 44.6C498.6 43.5 503.8 41.2 509.1 39.3C510 39.1 510.9 38.8 511.7 38.5Z" fill="#FF6BEE"/>
<path d="M270.1 156.5C269.7 148.7 267.1 141.4 264.1 134.1C259.7 143.1 255.8 152.4 249.1 159.6C254.6 162.4 259.9 165.5 265.1 168.8C266.4 169.6 267.6 170.5 268.9 171.3C269.8 166.4 270.4 161.5 270.1 156.5Z" fill="#FD018E"/>
<path d="M492.2 178.5C494.2 169.3 494.9 160.3 491.6 151.7C488.5 143.8 482.7 137.8 475.7 132.6C479.4 141.6 483.8 150.4 487.2 159.5C489.4 165.5 491.3 172 492.2 178.5Z" fill="#322B98"/>
<path d="M184.2 151C179 145.5 174.1 139.4 169.2 133.8C153 115 134.3 98.5 115.5 82.4C113.6 80.8 111.6 79.1 109.7 77.4C114 86.4 119.2 95.1 124.7 103C138.7 123 155.4 141.8 166.7 163.1C167.2 162.4 167.8 161.7 168.4 161.1C172.7 156.5 178.2 153.2 184.2 151Z" fill="#322B98"/>
<path d="M-57.5 196.3C-52.4 186.4 -47.5 176.4 -42.9 166.3L-42.6 165.8C-40.5 163.8 -37.6 162.8 -34.8 162.9C-25.2 163.4 -21.1 175.8 -22.4 185.4C-23.7 194.9 -27.6 204.9 -24.1 213.8C-20.4 223.1 -9.9 227.7 -0.400002 231.1C12.4 235.7 25.4 240 36.6 247.7C44.8 253.4 51.9 261.3 55.4 270.5C64.4 270 73.4 268.8 81.4 265C90.8 260.5 98.9 251.8 99.8 241.4L99.3 240.9C99.4 237.8 103.8 236.7 106.7 238C109.5 239.3 111.5 242 114.4 243.4C118.6 245.4 123.7 244.1 127.6 241.6C128.2 241.2 128.8 240.8 129.3 240.4C126 237.4 123.2 233.9 119.7 231.2C111.2 224.7 99.7 224.2 89.1 224.9C78.5 225.6 67.6 227.4 57.3 224.7C47 222 37.3 213.1 37.9 202.5C38.3 196.3 41.9 190.9 43.8 184.9C45.1 180.8 45.5 176.5 45.3 172.1C42.1 171.9 39 171.8 35.8 172.1C33.4 172.3 31 172.8 29 173.9C21.4 178.1 20.6 189.5 13.3 194.1C7.3 197.8 -1.3 195 -5.1 189.1C-8.9 183.2 -8.6 175.3 -5.7 168.9C-2.8 162.5 2.3 157.3 7.7 152.8C11.5 149.7 15.5 146.8 18.4 142.9C21.3 139 23.1 133.8 21.6 129.2L21.1 131.6C19.9 125.6 20.5 118 25.9 115.2C31.3 112.4 37.9 116.2 42 120.6C46.2 125.1 49.9 130.6 55.7 132.4C60.9 134 67 132.3 71.4 135.3C73.9 137 75.3 139.8 76.6 142.5C77.5 144.4 78.5 146.4 79.2 148.4C79.8 148.2 80.4 148.1 81 147.9C92.3 145.5 103.3 152.1 112.9 158.5C118 161.9 123.3 165.4 127.1 170.2C130.9 175 133.3 181.4 131.7 187.4C130.9 190.5 129.1 193.3 128.5 196.4C127.3 202.7 131.2 208.7 135.6 213.3C139.7 217.5 144.6 221.3 147.6 226.3C153.3 223.5 159.6 221.9 166.1 221.2C163.5 214.6 161.2 207.9 159.8 201C157.3 188 158.6 173.5 166.6 163.1C155.3 141.8 138.6 123 124.6 103C119 95 113.8 86.4 109.6 77.4C100.3 69.4 91.1 61 83.7 51.3C82 53.7 79.9 56 77.7 58C71.2 63.9 63.3 68.1 56.1 73.1C52.9 75.3 49.4 78.6 50 82.4L52.8 79.4C55 82.9 57.3 87 55.8 90.8C54.1 94.9 48.7 96.1 44.4 95.2C40.1 94.3 36.3 91.7 32 90.5C21.3 87.3 10.3 92.4 -0.700001 95C-6.2 115.5 -21.2 134.3 -41.8 138.4C-47.2 139.5 -52.7 139.6 -58.1 139.7C-58.8 142.6 -59.4 145.5 -60 148.5V200.6C-59.1 199.3 -58.3 197.8 -57.5 196.3Z" fill="#91F83A"/>
<path d="M78.9001 -88.2C82.1001 -82.5 83.0001 -75.2 80.0001 -69.4C76.4001 -62.6 68.4001 -59.4 63.0001 -53.7C55.5001 -45.8 54.1001 -33.8 54.7001 -22.9C55.3001 -12 57.4001 -1.00003 55.4001 9.79997C54.9001 12.6 54.0001 15.5 52.0001 17.6C48.3001 21.5 42.3001 21.4 37.0001 19.6C35.1001 27.7 33.2001 35.8 31.3001 43.9C30.1001 48.9 28.6001 54.4 24.3001 57.3C23.5001 57.9 22.6001 58.3 21.6001 58.6C21.9001 58.8 22.1001 59.1 22.4001 59.3C23.8001 60.7 25.2001 62.2 27.2001 62.5C28.8001 62.7 30.3001 62 31.7001 61.2C38.7001 57.4 44.6001 51.7 48.7001 44.9C52.0001 39.4 54.2001 33.3 57.8001 28C60.6001 23.8 64.7001 20 69.4001 18.5C68.1001 8.49998 69.4001 -1.60003 74.4001 -10.3C82.0001 -23.5 96.6001 -31 111.1 -35.7C124.7 -40.1 139 -42.6 152 -48.4C156.1 -54.1 159.6 -60.1 162.5 -66.5C162.1 -77.1 159.2 -87.7 154 -96.9H77.0001C76.7001 -95.4 76.4001 -93.9 76.0001 -92.4C77.1001 -91.1 78.1001 -89.7 78.9001 -88.2Z" fill="#FFA8FC"/>
<path d="M178.9 221.3C181.8 221.6 184.7 222 187.5 222.6C203.5 226.2 217.9 234.7 231.2 244.4C231.1 241.4 231.7 238.6 233.8 236.2C237.4 232.1 243.9 232.2 249.1 234C265.7 239.7 274.2 257.5 284.3 271.9C288.3 277.6 293.2 283.3 299.8 285.6C304 287.1 308.5 287.1 312.8 287.7C320.1 288.8 327.1 291.8 333 296.3C336.2 298.8 339.2 302.1 339.3 306.1C339.5 312.3 332.9 316.4 327.2 318.8C321.4 321.2 314.7 324.5 313.9 330.7C313 337.2 319.5 343.1 318.5 349.5C314 349.4 309.5 348.6 305.2 347.2L307.8 349.9C299.4 341 288.2 336.6 276.2 333.4C275.4 335.1 274.4 336.7 273.3 338.2C264.1 350.7 247.2 354.4 231.8 356.2C218.8 357.7 205.8 358.6 192.7 358.9C192.9 361.4 193.2 363.9 193.5 366.5C193.9 369.4 194.3 372.3 194.8 375.3C197 374.4 199.2 373.6 201.4 373C221.9 366.9 245.6 373.2 260.3 388.7C262.3 390.8 264.3 393.3 264.7 396.2C265.4 401.3 261.3 405.3 256.3 407.6C265.5 413.3 274.1 421.7 273.1 432.1C272.6 437.9 269.1 442.7 265.4 447.4C270.7 447.8 276 447.7 281.3 447.1C305.3 444.1 327.4 429.8 341.4 410.1C343.9 406.6 346.1 402.9 348.2 399.2C347.4 390.2 344.9 381.3 340.8 373.2L341.5 375.9C337.8 369.4 346.2 361.4 353.6 362.3C357.3 362.8 360.6 364.5 363.6 366.8C364.3 365.3 365 363.8 365.8 362.3C373.8 346.3 384.6 330.6 400.6 322.7C407.7 319.2 415.5 317.4 423.4 315.8C416.5 311 409.2 306.6 402 302.5L400.2 301.2C401.8 299.6 403.2 297.8 404.5 295.9C400.6 295.5 396.8 294.7 394.1 291.9C390 287.7 390.9 279.7 395.9 276.5C399.2 274.4 404.6 272.3 403 268.7L404.8 267C410 258.4 419.3 253 425.8 245.4C416.3 243.6 406.9 241.6 397.5 239.3C387.3 241.5 377.9 245.4 370.3 252.3C370.3 253.3 370.5 254.4 370.5 255.3C370.6 258.4 366 259.7 363.3 258.1C360.6 256.5 359.3 253.4 357.4 250.8C351.7 242.9 339.6 240.4 331.2 245.5C327.3 247.9 324.3 251.6 320.2 253.8C308.9 259.9 295.2 252 285.6 243.5C275.2 234.2 265.5 223 263.3 209.2C261.3 196.4 266.1 183.7 268.6 170.9C267.3 170.1 266.1 169.2 264.8 168.4C259.7 165.1 254.3 161.9 248.8 159.2C248.2 159.8 247.7 160.4 247 160.9C238.9 168.5 227.3 172.1 216.3 170.4C203.4 168.5 193.1 160.3 183.9 150.6C177.9 152.7 172.4 156 168.1 160.8C167.5 161.5 166.9 162.1 166.4 162.8C170.3 170.2 173.6 177.9 175.9 186C179.4 197.9 180.2 209.7 178.9 221.3Z" fill="#AAEBD9"/>
<path d="M178.9 221.3C180.1 209.7 179.3 197.9 176.1 186.5C173.8 178.4 170.5 170.7 166.6 163.3C158.6 173.7 157.3 188.2 159.8 201.2C161.1 208.2 163.4 214.8 166.1 221.4C170.4 220.9 174.7 220.9 178.9 221.3Z" fill="#FFA8FC"/>
<path d="M169.2 133.8C174 139.5 178.9 145.5 184.2 151C188.5 149.5 193.1 148.5 197.6 148.1C215.4 146.3 233 151.4 249.1 159.6C255.8 152.5 259.7 143.1 264.1 134.1C261.6 128.3 258.8 122.5 256.5 116.6C251.3 103.5 248.9 87.4 257.5 76.2C260.5 72.4 264.5 69.5 268.4 66.7C277.7 60.1 286.9 53.5 296.2 46.9C287.9 40.4 281.6 31.4 278.8 21.2C278.3 19.4 278 17.6 277.7 15.8C277.2 17.3 276.4 18.7 275.2 19.8C272.7 22.2 269 22.9 265.6 22.9C257 22.9 248.2 19.6 240 22.1C234.8 23.6 230.4 27.4 227.6 32C226.3 34.1 225.1 36.5 222.9 37.5C221.2 38.3 219.1 38 217.3 37.6C210.2 36.3 202.2 32.8 200.9 25.7C199.6 18.4 206.4 12.3 212.5 8.19998C218.7 3.99998 225.8 -1.20001 225.6 -8.60001L223.8 -9.60001C232.1 -10.3 240.3 -10.9 248.6 -11.6C252.2 -11.9 255.8 -12.2 259.4 -11.6C267.9 -10.2 275.1 -3.50002 277.6 4.69998C278.6 -4.40002 282.3 -13.3 288.5 -20.1C292 -24 296.2 -27.1 300.7 -29.8C292.2 -37.9 282.4 -44.4 272.6 -50.9C271.3 -51.8 270 -52.6 268.7 -53.5C266.7 -52.8 264.7 -52 262.8 -51C255.7 -47.2 250 -41 242.8 -37.4C235.6 -33.8 225.4 -33.5 220.7 -40.1C215.9 -46.9 219.6 -55.8 221.3 -64.2C220.6 -63.8 219.9 -63.4 219.3 -62.9C211.5 -57.8 204.3 -51.7 195.9 -47.7C187.5 -43.7 177.2 -42.2 169 -46.7C167 -47.8 165.1 -49.3 164 -51.3C163.5 -52.2 163.2 -53.1 162.9 -54.1C160.2 -52.5 157.4 -50.9 154.5 -49.5C153.7 -49.1 152.8 -48.7 152 -48.3C150.7 -46.5 149.4 -44.8 148 -43.1C133 -24.9 112.4 -10.6 103.6 11.2C94.8999 32.6 99.5999 56.1 109.7 77.6C111.6 79.3 113.6 80.9 115.5 82.6C134.4 98.5 153.1 115 169.2 133.8Z" fill="#00BECE"/>
<path d="M103.6 11.1C112.4 -10.7 133 -25 148 -43.2C149.4 -44.9 150.7 -46.6 152 -48.4C139 -42.6 124.7 -40.1 111.1 -35.7C96.6001 -31 82.1001 -23.4 74.4001 -10.3C69.4001 -1.60003 68.0001 8.49998 69.4001 18.5C70.6001 18.1 71.9001 17.9 73.2001 17.8C82.0001 17.6 89.1001 26.4 89.3001 35.2C89.4001 41 87.2001 46.5 83.7001 51.3C91.1001 61 100.3 69.3 109.6 77.4C99.6001 56.1 94.9001 32.5 103.6 11.1Z" fill="#AAEBD9"/>
<path d="M197.6 148.1C193.1 148.5 188.5 149.5 184.2 151C193.4 160.7 203.6 168.9 216.6 170.8C227.6 172.4 239.2 168.8 247.3 161.3C247.9 160.7 248.5 160.2 249.1 159.6C233 151.4 215.4 146.3 197.6 148.1Z" fill="#91F83A"/>
<path d="M38.3 13.9C37.9 15.8 37.4 17.7 37 19.6C42.4 21.3 48.3 21.5 52 17.6C54 15.5 54.9 12.6 55.4 9.79997C57.4 -0.900024 55.3 -11.9 54.7 -22.9C54.1 -33.8 55.5 -45.7 63 -53.7C68.3 -59.3 76.3 -62.5 80 -69.4C83.1 -75.2 82.2 -82.5 78.9 -88.2C78.1 -89.7 77.1 -91.1 76 -92.4C69.3 -64.3 54.8 -39.1 37.6 -14.6C38.7 -12.3 39.6 -10 40.1 -7.50002C41.6 -0.500023 39.9 6.89998 38.3 13.9Z" fill="#363639"/>
<path d="M-5.6999 42.5C2.6001 31.5 11.2001 20.6 19.6001 9.70001C11.8001 3.90001 4.7001 -2.99999 -2.8999 -9.19999C-9.3999 -14.5 -16.2999 -19.4 -23.3999 -23.8C-22.4999 -14.6 -22.2999 -5.39999 -22.7999 3.80001C-16.0999 15.2 -11.2999 27.6 -6.5999 40C-6.2999 40.9 -5.9999 41.7 -5.6999 42.5Z" fill="#FD018E"/>
<path d="M19.6 9.70001C11.2 20.6 2.60005 31.5 -5.69995 42.5C-4.49995 45.7 -3.29995 48.9 -2.19995 52.2C5.30005 48 15.2 52.4 21.7 58.6C22.6 58.3 23.5001 57.9 24.4001 57.3C28.7001 54.4 30.2001 48.9 31.4001 43.9C33.3001 35.8 35.2 27.7 37.1 19.6C35.7 19.2 34.3 18.6 33.1 18C28.2 15.7 23.8 12.8 19.6 9.70001Z" fill="#AAEBD9"/>
<path d="M19.6 9.69997C25.8 1.59998 31.8 -6.40002 37.6 -14.6C35.4 -19 32.4 -23 29.4 -26.9C28 -28.7 26.5 -30.6 24.5 -31.5C19.6 -33.7 14.1 -30 8.69996 -30.3C3.49996 -30.6 -0.700033 -34.7 -3.50003 -39.1C-6.30003 -43.5 -8.20004 -48.5 -11.6 -52.4C-15 -56.3 -20.7 -59 -25.4 -57C-30.1 -55 -31.3 -47.1 -26.8 -45C-26.9 -45.3 -26.9 -45.5 -27 -45.8L-26.6 -44.9C-26.8 -44.8 -26.9 -44.9 -26.9 -44.9C-25.3 -37.9 -24.1 -30.9 -23.4 -23.8C-16.3 -19.4 -9.40003 -14.5 -2.90003 -9.20002C4.59997 -3.00002 11.8 3.89997 19.6 9.69997Z" fill="#FFA8FC"/>
<path d="M33.0001 18C34.3001 18.6 35.6001 19.2 37.0001 19.6C37.4001 17.7 37.9001 15.8 38.3001 13.9C39.9001 6.90002 41.6001 -0.499977 40.1001 -7.49998C39.6001 -9.99998 38.7001 -12.3 37.6001 -14.6C31.8001 -6.39998 25.8001 1.70002 19.6001 9.70002C23.8001 12.8 28.2001 15.7 33.0001 18Z" fill="#BD48FF"/>
<path d="M378 -75.6C380.4 -67.6 379.7 -58.1 374.3 -51.7C369.6 -46.2 362.1 -43.8 354.8 -43.1C346.7 -42.4 338.6 -43.6 330.7 -45.6C325.5 -42.7 320.2 -40 315 -37.4C310.2 -35 305.4 -32.6 300.8 -29.8L300.9 -29.7C312.9 -18.2 321.8 -3.50002 326.6 12.4C327.8 16.3 328.7 20.2 329.3 24.3C333.7 21.8 338.2 19.5 343.1 17.8C365.4 9.99997 390.2 15.4 412.3 24C427 29.7 442 37.6 452.3 49.1C458.4 45 465 41.5 471.6 38.2C471 37.3 470.5 36.4 470.1 35.3L472.2 37.8C472 37.9 471.8 38 471.5 38.1C474.9 43.1 481.7 45.6 488 45.3C489.8 45.2 491.6 45 493.3 44.6C494.5 37.3 492.7 29.3 489.7 22.3C485.2 11.5 478.4 1.79997 473.4 -8.80003C469.9 -16.2 467.3 -24.3 467.2 -32.3C463.4 -39.8 460.5 -47.8 460 -56.2C459.4 -65.5 462 -75.2 468.4 -82C472.6 -86.4 478 -89.3 483.4 -92C486.5 -93.6 489.7 -95.3 492.8 -96.9H450.4C451.8 -93.2 452.4 -89.2 451.5 -85.3C449.8 -77.8 443.4 -72.5 438.3 -66.7C433.2 -60.9 428.9 -52.7 432.4 -45.8C434.2 -42.2 437.8 -39.8 440.8 -37.1C446.1 -32.3 449.8 -25.8 451.3 -18.7C452 -15.3 452.2 -11.5 450.4 -8.50002C446.4 -1.80003 436 -3.30003 429.3 -7.50002C422.6 -11.6 416.2 -17.7 408.4 -17.5C401.8 -17.3 393.9 -13.1 389.6 -18C385 -23.3 391.1 -30.7 395.1 -36.5C399.6 -43.1 401.2 -51.5 399.4 -59.2L398.1 -54.2C398.5 -64.7 398.9 -75.2 399.3 -85.7C399.4 -89.4 399.7 -93.2 400.3 -96.9H378.7C377.2 -93 375.5 -89.2 373.5 -85.5C375.4 -82.5 377 -79.2 378 -75.6Z" fill="#91F83A"/>
<path d="M288.6 -20.1C282.4 -13.3 278.7 -4.49999 277.7 4.70001C278.3 6.50001 278.6 8.40001 278.6 10.3C278.6 12.2 278.4 14.1 277.8 15.9C278.1 17.7 278.4 19.5 278.9 21.3C281.6 31.5 288 40.5 296.3 47C301.7 43.2 307 39.4 312.4 35.6C317.9 31.7 323.5 27.7 329.4 24.3C328.8 20.3 327.9 16.3 326.7 12.4C321.9 -3.49998 313 -18.1 301 -29.7L300.9 -29.8C296.3 -27.1 292.1 -24 288.6 -20.1Z" fill="#FD0057"/>
<path d="M430 90.7C428.1 81.4 431.1 71.7 436.6 63.8C422.6 61 408.5 56.5 394.4 55.5C371.6 53.8 347.7 60.7 325.5 58.3C314.1 84.7 284.1 99.9 269 124.9C267.2 127.9 265.6 131 264.1 134.1C267.2 141.3 269.7 148.7 270.1 156.5C270.4 161.5 269.8 166.4 268.8 171.3C287.4 183.9 304.3 198.9 323.5 210.6C346.3 224.5 371.6 233.2 397.6 239.6C408 237.3 419.1 236.6 429.7 235.9C430.4 235.9 431.1 235.8 431.7 235.7C434.3 228.2 434.2 219.8 434.8 211.8C435.5 202.2 438 191.6 446 186.2C452.8 181.6 461.7 181.9 469.8 183.2C476.6 184.3 483.5 186.1 489.3 189.9C490.4 186.1 491.5 182.3 492.3 178.6C491.3 172.1 489.5 165.6 487.2 159.5C483.8 150.4 479.5 141.6 475.7 132.6C458.4 119.6 434.3 111.4 430 90.7ZM420.8 129.1C412.6 135.6 399.5 128.3 390.5 133.6C383.8 137.5 382.4 146.2 380.9 153.8C379.4 161.4 375.9 170.2 368.2 171.4C363.5 172.2 358.9 169.6 355 166.9C351.2 164.3 347.3 161.3 345.8 156.9C343.4 149.6 348.6 142.3 351.3 135.1C354.7 126 354 115.5 349.4 106.9V105.2C359.1 97 371.3 91.5 384 90.9C396.7 90.3 409.8 94.9 418.5 104.2C425 111 428.1 123.3 420.8 129.1Z" fill="#FFA8FC"/>
<path d="M268.8 171.3C266.3 184.1 261.5 196.8 263.5 209.6C265.7 223.3 275.4 234.6 285.8 243.9C295.4 252.4 309.1 260.3 320.4 254.2C324.4 252 327.5 248.3 331.4 245.9C339.8 240.8 351.9 243.2 357.6 251.2C359.4 253.8 360.8 256.9 363.5 258.5C366.2 260.1 370.8 258.8 370.7 255.7C370.7 254.8 370.5 253.6 370.5 252.7C370.2 253 369.8 253.3 369.5 253.6L370.5 252.4C370.5 251.4 370.8 250.7 371.8 250.9L370.5 252.4C370.5 252.5 370.5 252.6 370.5 252.7C378.1 245.7 387.5 241.9 397.7 239.7C371.7 233.3 346.4 224.6 323.6 210.7C304.4 198.9 287.4 183.9 268.8 171.3Z" fill="#BD48FF"/>
<path d="M325.5 58.2C319.2 57.5 313 56.1 307.1 53.5C303.2 51.8 299.6 49.6 296.2 47C286.9 53.6 277.7 60.2 268.4 66.8C264.4 69.6 260.4 72.5 257.5 76.3C248.9 87.5 251.3 103.6 256.5 116.7C258.8 122.6 261.6 128.3 264.1 134.2C265.6 131 267.2 127.9 269 125C284.1 99.8 314.1 84.6 325.5 58.2Z" fill="#BD48FF"/>
<path d="M327.5 53.1C326.9 54.9 326.3 56.6 325.6 58.2C347.8 60.6 371.7 53.7 394.5 55.4C408.6 56.5 422.8 60.9 436.7 63.7C438.2 61.5 439.9 59.4 441.8 57.5C445 54.2 448.5 51.4 452.3 48.9C442 37.4 427 29.5 412.3 23.8C390.2 15.3 365.5 9.89998 343.1 17.6C338.3 19.3 333.7 21.5 329.3 24.1C330.8 33.9 330.5 43.8 327.5 53.1Z" fill="#AAEBD9"/>
<path d="M296.2 47C299.5 49.6 303.2 51.8 307.1 53.5C313.1 56.1 319.2 57.6 325.5 58.2C326.2 56.5 326.9 54.8 327.4 53.1C330.4 43.8 330.7 33.9 329.2 24.2C323.3 27.6 317.7 31.6 312.2 35.5C306.9 39.3 301.6 43.1 296.2 47Z" fill="#BD48FF"/>
<path d="M483.2 216.5C483.9 207.7 486.7 198.8 489.3 189.9C483.6 186.1 476.6 184.3 469.8 183.2C461.7 181.9 452.8 181.6 446 186.2C438 191.7 435.5 202.2 434.8 211.8C434.2 219.8 434.3 228.2 431.7 235.7C450.6 234.2 471.2 230.2 483.2 216.5Z" fill="#363639"/>
<path d="M277.6 4.60003C275.1 -3.59997 267.9 -10.3 259.4 -11.7C255.8 -12.3 252.2 -12 248.6 -11.7C240.3 -11 232.1 -10.4 223.8 -9.69998L225.6 -8.69998C225.8 -1.29998 218.7 4.00003 212.5 8.10003C206.3 12.3 199.6 18.3 200.9 25.6C202.2 32.7 210.2 36.2 217.3 37.5C219.2 37.9 221.2 38.1 222.9 37.4C225.1 36.4 226.3 34 227.6 31.9C230.5 27.3 234.8 23.6 240 22C248.3 19.6 257 22.9 265.6 22.8C269.1 22.8 272.7 22.1 275.2 19.7C276.4 18.6 277.2 17.2 277.7 15.7C277.3 12.1 277.2 8.40003 277.6 4.60003Z" fill="#363639"/>
<path d="M277.6 4.59998C277.2 8.29998 277.2 12.1 277.7 15.8C278.3 14 278.5 12.1 278.5 10.2C278.5 8.39997 278.2 6.49998 277.6 4.59998Z" fill="#BD48FF"/>
<path d="M41.2999 151.4C42.7999 149.3 46.0999 149.2 48.4999 150.2C50.8999 151.2 52.9999 153 55.3999 153.9C63.1999 156.9 71.1 150.8 79.2 148.4C78.3999 146.4 77.4999 144.4 76.5999 142.5C75.2999 139.8 73.8999 137 71.3999 135.3C66.8999 132.3 60.7999 134 55.6999 132.4C49.8999 130.6 46.0999 125.1 41.9999 120.6C37.7999 116.1 31.2999 112.3 25.8999 115.2C20.4999 118 19.8999 125.6 21.0999 131.6L21.5999 129.2C23.0999 133.8 21.2999 139 18.3999 142.9C15.4999 146.8 11.3999 149.7 7.69994 152.8C2.29994 157.3 -2.80006 162.4 -5.70006 168.9C-8.60006 175.4 -8.90006 183.2 -5.10006 189.1C-1.30006 195 7.29994 197.8 13.2999 194.1C20.6999 189.6 21.4999 178.1 28.9999 173.9C31.0999 172.8 33.4999 172.3 35.7999 172.1C38.9999 171.8 42.0999 171.9 45.2999 172.1C45.0999 166.8 44.1999 161.4 43.2999 156.2C41.3999 155.9 40.0999 153.1 41.2999 151.4Z" fill="#FD018E"/>
<path d="M3.49995 269.1C19.2 270.7 35.1 271.3 50.9 270.7C52.4 270.6 53.9 270.6 55.4 270.5C51.9 261.3 44.7999 253.4 36.6 247.7C25.5 240 12.4 235.7 -0.400047 231.1C-9.90005 227.7 -20.3 223.1 -24 213.8C-27.5 204.8 -23.6 194.9 -22.3 185.4C-21 175.9 -25.1 163.5 -34.7 162.9C-37.6 162.8 -40.5 163.8 -42.5 165.8L-42.8 166.3C-47.4 176.4 -52.3 186.4 -57.4 196.3C-58.2 197.8 -59 199.3 -59.8 200.8V207C-55.4 230.7 -45.6 253.3 -30.4 272C-27.8 270.5 -24.9 269.5 -22 268.9C-13.8 267 -5.10004 268.2 3.49995 269.1Z" fill="#FFA8FC"/>
<path d="M147.7 226.4C144.7 221.4 139.8 217.6 135.7 213.4C131.3 208.8 127.4 202.8 128.6 196.5C129.2 193.4 131 190.6 131.8 187.5C133.4 181.6 131.1 175.1 127.2 170.3C123.3 165.5 118.1 162 113 158.6C103.4 152.2 92.4 145.6 81.1 148C80.5 148.1 79.9 148.3 79.3 148.5C80.6 152 81.4 155.6 80.6 159.2C78.9 167.5 69.6 172.1 61.2 172.8C55.9 173.2 50.6 172.6 45.3 172.3C45.4 176.6 45.1 180.9 43.8 185.1C41.9 191 38.3 196.5 37.9 202.7C37.3 213.3 47 222.2 57.3 224.9C67.6 227.6 78.5 225.8 89.1 225.1C99.7 224.4 111.2 224.9 119.7 231.4C123.2 234.1 126 237.6 129.3 240.6C132.4 238.2 135.1 235.3 138.1 232.8C140.9 230.1 144.2 228.1 147.7 226.4Z" fill="#00BECE"/>
<path d="M44.5 156.1L43.2 156.2V156.3C43.6 156.4 44.1 156.3 44.5 156.1Z" fill="#BD48FF"/>
<path d="M61.1999 172.8C69.6999 172.1 78.8999 167.5 80.5999 159.2C81.3999 155.6 80.5999 152 79.2999 148.5C71.1999 150.9 63.2999 157 55.4999 154C52.9999 153.1 50.9999 151.3 48.5999 150.3C46.1999 149.3 42.8999 149.4 41.3999 151.5C40.1999 153.2 41.4999 156 43.2999 156.4V156.3L44.5999 156.2C44.1999 156.5 43.6999 156.5 43.2999 156.4C44.1999 161.6 45.1999 167 45.2999 172.3C50.4999 172.6 55.8999 173.2 61.1999 172.8Z" fill="#BD48FF"/>
<path d="M69.4 18.5C64.7 20 60.6 23.8 57.8 28C54.2 33.3 52.1 39.5 48.7 44.9C44.6 51.7 38.6 57.3 31.7 61.2C30.3 62 28.8 62.7 27.2 62.5C25.3 62.3 23.8 60.7 22.4 59.3C22.2 59 21.9 58.8 21.6 58.6C19 59.5 16.1 59.6 13.4 59.7C9 59.9 4.3 59.9 -0.200001 59.4C0.199999 61.1 0.599998 62.8 0.899998 64.5C2.3 72.6 2.1 80.9 0.799999 88.9C0.399999 91 0 93 -0.5 95.1C10.5 92.5 21.5 87.4 32.2 90.6C36.4 91.9 40.3 94.4 44.6 95.3C48.9 96.2 54.3 95 56 90.9C57.6 87.1 55.3 82.9 53 79.5L50.2 82.5C49.6 78.6 53 75.4 56.3 73.2C63.5 68.2 71.4 64 77.9 58.1C80.1 56.1 82.2 53.8 83.9 51.4C81.7 48.5 79.7 45.6 77.9 42.4C73.5 35.2 70.5 26.9 69.4 18.5Z" fill="#BD48FF"/>
<path d="M73.1999 17.9C71.8999 17.9 70.5999 18.2 69.3999 18.6C70.4999 27 73.4999 35.2 77.6999 42.5C79.4999 45.6 81.5999 48.6 83.6999 51.5C87.0999 46.7 89.3999 41.2 89.2999 35.4C89.1999 26.5 81.9999 17.6 73.1999 17.9Z" fill="#322B98"/>
<path d="M-2.19995 52.2C-1.39995 54.6 -0.699953 57 -0.0999527 59.4C4.40005 59.9 9.10005 59.8 13.5 59.7C16.3 59.6 19.1 59.5 21.7 58.6C15.2 52.4 5.20005 48 -2.19995 52.2Z" fill="#FD0057"/>
<path d="M0.899982 64.5C0.599983 62.8 0.199984 61.1 -0.200016 59.4C-2.80002 59.1 -5.40002 58.7 -7.80002 58C-9.40002 60.8 -10.4 64 -11.3 67.1C-13.7 75.1 -16.1 83.1 -18.5 91C-18.9 92.2 -19.2 93.6 -18.5 94.7C-17.9 95.5 -16.9 95.8 -15.9 96C-10.8 97 -5.70002 96.4 -0.600018 95.2C-0.100018 93.1 0.399982 91.1 0.699982 89C2.09998 80.9 2.29998 72.6 0.899982 64.5Z" fill="#FFA8FC"/>
<path d="M513.3 62.5C511.6 62.5 509.9 62.3 508.5 61.3C506.1 59.7 505.4 56.5 505.5 53.6C505.8 48.1 508.6 43.3 511.6 38.5C510.8 38.8 509.9 39 509.1 39.3C503.8 41.2 498.6 43.4 493.2 44.6C492.6 48.2 491.3 51.6 489.1 54.6C485.6 59.1 480.4 62 475 63.7C470.9 65 466.8 65.8 462.6 66.1C462.7 66.3 462.7 66.4 462.8 66.6C467.5 80 465.8 94.7 468.2 108.7C469.6 117 472.4 124.8 475.7 132.6C482.7 137.8 488.5 143.8 491.6 151.7C494.9 160.3 494.3 169.4 492.2 178.5C492.9 183.2 493.1 188 492.8 192.6C502.4 201.3 506.6 215.3 516.8 223.6C523.5 229 531.9 231.3 540.1 234.2V143.1C530.5 138 521.7 129.1 524.3 119C526.2 111.5 532.6 108 540.1 105.2V44.4C532 53 524.6 62.4 513.3 62.5Z" fill="#FD0057"/>
<path d="M470 35.2C470.4 36.2 470.9 37.2 471.5 38.1C471.7 38 471.9 37.9 472.2 37.8L470 35.2Z" fill="#91F83A"/>
<path d="M475 63.7C480.4 62 485.7 59.1 489.1 54.6C491.4 51.6 492.7 48.2 493.2 44.6C491.5 45 489.7 45.2 487.9 45.3C481.6 45.6 474.8 43.1 471.4 38.1C464.8 41.5 458.2 44.9 452.1 49C456.6 54 460.2 59.7 462.5 66.1C466.8 65.8 470.9 65 475 63.7Z" fill="#322B98"/>
<path d="M436.6 63.8C431.1 71.7 428 81.4 430 90.7C434.3 111.4 458.4 119.5 475.7 132.6C472.5 124.8 469.6 117 468.2 108.7C465.8 94.7 467.4 80 462.8 66.6C462.7 66.4 462.7 66.3 462.6 66.1C454.1 66.7 445.4 65.6 436.6 63.8Z" fill="#00BECE"/>
<path d="M436.6 63.8C445.3 65.6 454 66.7 462.6 66.1C460.3 59.7 456.7 54 452.2 49C448.4 51.6 444.9 54.4 441.7 57.6C439.9 59.5 438.2 61.6 436.6 63.8Z" fill="#BD48FF"/>
<path d="M384.1 90.9C371.4 91.5 359.2 97.1 349.5 105.2V106.9C354.1 115.5 354.8 126 351.4 135.1C348.7 142.3 343.5 149.6 345.9 156.9C347.3 161.3 351.2 164.3 355.1 166.9C359.1 169.6 363.6 172.1 368.3 171.4C375.9 170.2 379.5 161.4 381 153.8C382.5 146.2 383.9 137.5 390.6 133.6C399.6 128.4 412.7 135.6 420.9 129.1C428.3 123.2 425.1 111 418.7 104.1C409.9 94.8 396.8 90.2 384.1 90.9Z" fill="#BD48FF"/>
<path d="M77.2 181.4C73.2 178.6 69.2 175.8 66.5 171.8C63.8 167.8 62.8 162.3 65.2 158.1C66.3 156.2 68 154.7 69.8 153.3C82.5 143.8 98.8 140.4 114.5 138.5C130.3 136.7 146.4 136.2 161.6 131.4C176.8 126.7 191.3 116.8 197 101.9C198.9 96.8 199.8 91.3 202 86.3C205.1 79.2 210.9 73.6 217.4 69.4C232.4 59.6 251.1 56.8 268.9 58.2C286.8 59.6 304 64.8 321.2 70C332.7 73.5 344.1 77 355.6 80.4C366 83.6 376.5 86.8 386.2 91.8C397.4 97.6 407.3 105.8 415.2 115.7C419.3 120.9 422.9 126.7 424 133.2C426.2 145.8 418.3 158.5 407.6 165.6C396.9 172.7 384 175.2 371.3 177.1C330.6 183.1 289.2 183.7 248.1 184.3C195.5 185.1 143 185.8 90.4 186.6C84.6 186.7 77.9 186.3 74.5 181.6" fill="#BD48FF"/>
<path d="M255.8 143C255.6 142.8 255.3 142.7 255.1 142.5C254.8 142.6 254.4 142.7 254.1 142.8L255.8 143Z" fill="#91F83A"/>
<path d="M453.4 165.1C450.5 166.8 447.7 168.8 444.6 170C439.8 171.8 434.5 171.7 429.4 171C422.9 170.1 416.5 168.3 410.5 165.6C404.9 163.1 399.7 159.9 394.1 157.6C387.4 154.8 380.2 153.2 373.3 150.8C372.3 150.5 371.3 150.1 370.7 149.3C370.1 148.5 370.4 148.9 370.3 147.3C370.1 145.4 370.7 143.5 371.8 141.9C350.1 137.4 328.5 132.5 306.5 133.2C305.5 133.2 304.4 133.3 303.4 133.4C303.8 135.3 303.5 137.1 302 138.5C300.8 139.6 299.1 140.1 297.5 140.5C286.8 143.2 275.9 145.1 264.9 146.3C260.6 146.7 255.4 146.6 252.8 143.3C244.8 145.5 236.9 147.9 228.9 150C186.6 161.2 143.1 166.5 99.2999 167.2C98.2999 167.9 97.2999 168.7 96.2999 169.4C94.3999 170.8 92.4999 172.2 90.2999 172.8C84.7999 174.4 78.9999 171.1 74.8999 167C73.3999 167 71.7999 166.9 70.2999 166.9C68.6999 169.4 67.1999 172 65.6999 174.6L66.7999 176.2C67.6999 178.4 64.6999 180 62.3999 180.3C51.5999 181.8 40.5999 180.1 29.8999 178.3C23.6999 177.2 17.2999 176 11.6999 173.1C6.69991 170.5 2.59991 166.7 -0.600091 162.1C-3.40009 164.6 10.6999 177.3 15.7999 181.2C45.7999 204.2 86.1999 206.8 123.9 208.2C196.5 210.9 269.1 212.4 341.8 212.8C345.3 212.8 348.8 212.8 352.2 212.8C332.3 212.7 312.6 211.8 290.8 209C286.7 206 287.7 204.1 282.7 195.4C280.9 192.3 278.8 191.2 281 187C281.7 185.6 282.8 184.5 284 183.4C296 173 308.3 162.6 322.6 155.7C326.7 153.8 331 152.1 335.5 151.8C341.7 151.4 347.7 153.6 353.6 155.8C366.7 160.7 379.7 165.6 392.8 170.5C408.8 176.5 424.9 182.6 439.4 191.6C441.1 192.7 442.8 193.8 443.7 195.7C444.8 198.2 443.8 201.3 441.9 203.2C440 205.2 437.3 206.2 434.7 207C431.5 208 428.2 208.8 424.8 209.3C440.9 207.3 456.9 204.1 472.3 198.7C476.7 197.2 481.2 195.3 484.1 191.8C489 186 488.4 177.6 487.6 170C487.1 165.2 486.5 160.2 483.7 156.3C477.7 158.2 471 158.2 464.8 159.9C460.7 161.3 456.9 163 453.4 165.1ZM220.9 204.4C219 208.8 213.1 209.4 208.4 209.4C196.7 209.4 185 209.4 173.4 209.5C168.1 209.5 162.7 209.5 157.4 209.1C153.3 208.8 149 208.1 145.8 205.5C141.9 202.2 140.8 196.8 139.1 192C136.8 185.7 135.1 182 129.6 178.2C128.5 177.4 124.5 176.4 126.8 172.8C127.5 171.7 129.2 171.8 130.5 171.8C157.9 171.7 184.5 180.5 210 190.5C213.1 191.7 216.3 193 218.6 195.4C220.9 197.6 222.3 201.3 220.9 204.4Z" fill="#322B98"/>
<path d="M210 190.4C184.5 180.4 157.9 171.7 130.5 171.7C129.2 171.7 127.5 171.6 126.8 172.7C124.6 176.2 128.6 177.3 129.6 178.1C135.1 181.9 136.9 185.6 139.1 191.9C140.8 196.7 141.9 202.1 145.8 205.4C148.9 208.1 153.3 208.7 157.4 209C162.7 209.4 168.1 209.4 173.4 209.4C185.1 209.4 196.8 209.4 208.4 209.3C213.2 209.3 219 208.6 220.9 204.3C222.2 201.3 220.9 197.6 218.6 195.2C216.2 192.9 213.1 191.6 210 190.4Z" fill="#FFA8FC"/>
<path d="M441.7 203.5C443.6 201.5 444.7 198.5 443.5 196C442.7 194.2 440.9 193 439.2 191.9C424.7 182.9 408.6 176.8 392.6 170.8C379.5 165.9 366.5 161 353.4 156.1C347.6 153.9 341.5 151.7 335.3 152.1C330.8 152.4 326.5 154 322.4 156C308.1 162.8 295.8 173.3 283.8 183.7C282.6 184.7 281.6 185.9 280.8 187.3C278.6 191.5 280.7 192.6 282.5 195.7C287.5 204.3 286.5 206.3 290.6 209.3C312.3 212.1 332 213 352 213.1C352.7 213.1 353.4 213.1 354.1 213.1C369.7 213.1 385.4 212.5 402.5 211.9C402.9 211.9 403.3 211.9 403.7 211.8C410.7 211.3 417.6 210.7 424.5 209.9C427.8 209.3 431.1 208.6 434.4 207.6C437.1 206.5 439.8 205.4 441.7 203.5Z" fill="#FFA8FC"/>
<path d="M486 136.4C484.1 135.1 481.7 134.6 479.4 134.3C476 133.8 472.6 133.5 469.2 133.2C469.2 133.9 469.1 134.6 468.8 135.3C467.7 137.7 464.7 138.3 462.1 138.7C456.5 139.5 450.3 140.1 445.6 136.9C444 135.8 442.8 134.4 441.6 132.8C435.9 133.3 430.3 133.6 424.6 133.6C422.9 133.6 421.2 133.6 419.6 133.2C417.3 132.6 415.2 131.1 413.2 129.8C412.2 129.1 411.1 128.3 410 127.6C407.1 128 404.2 128.6 401.4 129.5C398 130.6 394.7 132.1 391.3 133.2C385.1 135.1 378 135.5 373.3 139.9C372.7 140.5 372.1 141.1 371.7 141.9C381.3 143.9 390.9 145.8 400.5 147.1C419 149.6 437.8 149.8 456.5 149C466.3 148.6 477.8 148.7 483.4 156.7C483.4 156.7 483.4 156.8 483.5 156.8C484.7 156.4 485.9 156 487.1 155.4C487.9 155 488.7 154.6 489.2 153.8C489.8 152.9 489.9 151.9 490 150.8C490.3 145.6 490.3 139.4 486 136.4Z" fill="#91F83A"/>
<path d="M456.5 148.9C437.8 149.7 419.1 149.5 400.5 147C390.9 145.7 381.3 143.8 371.7 141.8C370.6 143.4 370 145.3 370.2 147.2C370.3 148.8 370 148.4 370.6 149.2C371.2 150 372.2 150.4 373.2 150.7C380.1 153.1 387.3 154.7 394 157.5C399.6 159.8 404.8 163 410.4 165.5C416.4 168.2 422.8 170 429.3 170.9C434.4 171.6 439.7 171.8 444.5 169.9C447.7 168.7 450.4 166.7 453.3 165C456.8 162.9 460.6 161.2 464.6 160.2C470.8 158.6 477.4 158.5 483.5 156.6C483.5 156.6 483.5 156.5 483.4 156.5C477.8 148.6 466.3 148.5 456.5 148.9Z" fill="#FFA8FC"/>
<path d="M2.29997 161.8C24.8 164.5 47.4 166.3 70.1 166.9C70.7 165.9 71.4 165 72.1 164C69.7 160.9 68 157.3 68.3 153.4L68.7 152.3C67.9 144.7 61.4 138.8 54.3 136C47.2 133.2 39.4 132.8 31.9 131.5C24.4 130.3 16.6 127.9 11.4 122.3C9.59997 120.4 8.19997 117.8 8.59997 115.2C8.69997 114.2 9.09997 113.4 9.69997 112.7C6.79997 112.1 3.89997 112 1.09997 112.9C-3.40003 114.3 -6.80003 118.3 -8.40003 122.8C-10 127.3 -10.1 132.1 -9.60003 136.8C-8.80003 145.7 -5.80003 154.7 -0.700031 161.9C-0.300032 161.7 0.699968 161.5 2.29997 161.8Z" fill="#FF6BEE"/>
<path d="M11.5 173.1C17.1 176 23.5 177.2 29.7 178.3C40.4 180.2 51.4 181.9 62.2 180.3C64.5 180 67.5 178.3 66.6 176.2L65.5 174.6C66.9 172 68.4 169.4 70.1 166.9C47.4 166.3 24.8 164.5 2.29995 161.8C0.699953 161.5 -0.300049 161.6 -0.800049 162.1C2.49995 166.6 6.49995 170.5 11.5 173.1Z" fill="#91F83A"/>
<path d="M85.1999 121C90.4999 121.8 96.6999 123.7 98.0999 128.9C98.8999 131.7 97.8999 134.8 96.1999 137.2C94.4999 139.6 92.1998 141.5 89.9998 143.5C83.1998 149.6 77.0998 156.5 71.9998 164C72.6998 164.9 73.4999 165.8 74.2999 166.6C74.3998 166.7 74.5999 166.9 74.6999 167C82.8999 167.2 90.9999 167.2 99.1999 167.1C100.2 166.4 101.2 165.6 102.2 164.9C101.5 164.5 100.8 163.9 100.5 163C99.8998 161.5 100.4 159.9 100.9 158.4C105.3 147.1 115.7 139.3 126.7 134.1C133.6 130.8 140.9 128.4 148.1 125.6C138.4 124.5 128.8 120.6 119.4 117.4C107.9 113.5 95.9999 110.7 83.8999 108.9L83.9998 107.7C84.3998 105.2 85.1999 102.9 86.3999 100.7C83.6999 100.4 80.9998 99.9999 78.2999 99.8999C73.3998 99.6999 68.5999 100.3 63.6999 100.8C48.2999 102.5 32.8999 104.3 17.8999 108.1C14.7999 108.9 11.2999 110.2 9.59985 112.7C12.4999 113.3 15.3999 114.3 18.1999 115.1C39.7999 121.7 62.9999 117.9 85.1999 121Z" fill="#BD48FF"/>
<path d="M74.8 167C78.9 171.1 84.7001 174.4 90.2001 172.8C92.4001 172.1 94.3001 170.7 96.2001 169.4C97.2001 168.7 98.2001 167.9 99.2001 167.2C91.1001 167.2 82.9 167.2 74.8 167Z" fill="#AAEBD9"/>
<path d="M11.4999 122.4C16.6999 128 24.4999 130.3 31.9999 131.6C39.4999 132.8 47.2999 133.3 54.3999 136.1C61.4999 138.9 67.9999 144.8 68.7999 152.4L68.3999 153.5C68.0999 157.3 69.7999 161 72.1999 164.1C77.3999 156.6 83.3999 149.7 90.1999 143.6C92.3999 141.6 94.6999 139.7 96.3999 137.3C98.0999 134.9 98.9999 131.8 98.2999 129C96.8999 123.8 90.6999 121.9 85.3999 121.1C63.1999 117.9 39.9999 121.7 18.3999 115.3C15.5999 114.5 12.6999 113.5 9.7999 112.9C9.2999 113.6 8.89991 114.5 8.69991 115.4C8.19991 118 9.69991 120.5 11.4999 122.4Z" fill="#FFA8FC"/>
<path d="M252.3 142.6C252.4 142.8 252.6 143 252.7 143.2C253.1 143.1 253.6 143 254 142.8L252.3 142.6Z" fill="#91F83A"/>
<path d="M437.5 50.1C436.7 51.2 435.4 52 434.2 52.7C411.8 65.3 384.7 65.3 359 64.8C358.5 64.8 357.9 64.8 357.4 64.8C355.9 68.4 351.4 71.2 347.4 72.9C331.8 79.4 315.1 86 298.4 83.2C296.6 82.9 294.8 82.5 293 82C290.6 82.9 288.3 83.7 285.9 84.5C271.4 89.3 256.4 92.7 242.1 97.9C242.4 98.3 242.6 98.7 242.8 99.2C244 101.8 243.4 104.8 243.6 107.7C243.9 113.4 247.1 118.6 247.6 124.3C247.9 128.3 246.8 132.1 244.7 135.5C248.2 137.9 251.6 140.3 255.1 142.7C271 138.3 287 134.4 303.3 133.4C302.8 130.6 300.8 127.7 298.8 125.6C295.4 122.1 291.5 116.9 294.2 112.8C295.3 111.1 297.3 110.2 299.2 109.4C318.9 101.1 340.6 92.7 361 99C367.5 101 373.4 104.4 379.2 107.9C389.7 114.2 400 120.8 410.1 127.8C414.5 127.2 419 127 423.5 127C428.3 127 433.1 127 437.8 127.7C435.7 124.8 433.7 121.9 431.6 119C428.3 114.4 424.9 109.7 423.1 104.3C421.3 98.9 421 92.7 423.9 87.8C425.3 85.5 427.2 83.6 429.3 81.8C432.6 79 436.3 76.6 440.1 74.6C442.4 73.4 445.7 72.6 447.1 74.8H448.3C449.4 76.7 450.5 78.6 451.6 80.6C454.8 79.3 458 78.1 461.3 77.1C464.2 76.1 467.5 74.9 468.5 72C469.5 69.1 467.6 66.1 466 63.4C462.4 57.4 460.2 50.6 459.5 43.6C459.1 39.9 458.7 35.4 455.5 33.6C453 32.2 449.9 33 447.2 33.8C444.3 34.7 441.5 35.6 438.6 36.6C438.7 38.9 438.7 41.1 438.8 43.4C438.9 45.6 438.9 48.1 437.5 50.1Z" fill="#91F83A"/>
<path d="M255.8 143L254 142.8C253.6 142.9 253.1 143 252.7 143.2C255.3 146.5 260.5 146.6 264.8 146.2C275.8 145.1 286.7 143.2 297.4 140.4C299 140 300.7 139.5 301.9 138.4C303.4 137 303.7 135.2 303.3 133.3C286.9 134.2 270.9 138.1 255.1 142.6C255.3 142.7 255.5 142.9 255.8 143Z" fill="#91F83A"/>
<path d="M437.8 127.5C433.1 126.9 428.3 126.8 423.5 126.8C419 126.8 414.5 127 410.1 127.6C411.2 128.3 412.2 129 413.3 129.8C415.3 131.2 417.3 132.6 419.7 133.2C421.3 133.6 423 133.6 424.7 133.6C430.4 133.6 436 133.3 441.7 132.8C441.2 132.2 440.8 131.6 440.3 130.9C439.4 129.8 438.6 128.6 437.8 127.5Z" fill="#BD48FF"/>
<path d="M161 66.4C163.8 66.7 165.8 69.1 167.3 71.5C173.6 81.6 175 94.1 174.1 105.9C173.6 112.2 172.2 119.1 167 122.7C164.8 124.2 162.2 125 159.5 125.5C157.4 125.9 155.4 126 153.3 126C151.2 128.8 148.3 130.9 145.5 133C131.1 143.6 116.7 154.3 102.2 164.9C103.8 165.9 106.2 166 108.2 165.9C143.4 163.8 178.4 158.9 213 152.1C221 150.5 229.1 148.7 236 144.3C239.5 142.1 242.6 139 244.7 135.4C237.9 130.7 231.1 125.9 224.3 121.2C221.9 119.5 219.3 117.6 218.8 114.8C217.8 110.1 222.6 106.4 226.8 104.3C231.8 101.8 236.9 99.7 242.1 97.9C240.2 95.2 236.7 93.8 233.7 92.1C229.4 89.6 225.7 86 223.2 81.8C222.5 80.7 222 79.5 222.1 78.2C222.4 75.1 226.4 74.1 229.5 73.8C244 72.7 258.8 71.7 272.8 75.4C279.7 77.2 286.2 80.1 293.1 82C305 77.6 316.7 72.6 328.9 68.8C335.2 66.8 341.6 65.2 348 63.6C347.1 63.3 346.2 63 345.4 62.6C341.1 60.6 337.6 56.2 338.2 51.5L338.8 50.8C341.9 51 344.9 50.7 347.8 50.2C337.1 42 324.2 36.8 311.5 31.4C311.6 33.8 311.6 36.1 311.7 38.5C311.7 39.4 311.7 40.4 311.3 41.2C310.5 42.5 308.8 42.7 307.3 42.8C285.7 44.2 264.8 35.9 244.8 27.6L244.3 27.9C242.5 26.1 242.2 23.3 242.9 20.9C242.8 20.9 242.8 21 242.7 21C219 31 195.3 41.1 171.7 51.1C162.5 55 152.1 60.3 149.5 69.8C151.9 69 154.2 68.1 156.6 67.3C157.9 66.7 159.4 66.2 161 66.4Z" fill="#FF6BEE"/>
<path d="M153.4 125.9C151.7 125.9 149.9 125.8 148.2 125.6C141 128.3 133.8 130.8 126.8 134.1C115.9 139.3 105.4 147.1 101 158.4C100.4 159.9 100 161.5 100.6 163C100.9 163.9 101.5 164.4 102.3 164.9C116.7 154.3 131.1 143.6 145.6 133C148.3 130.8 151.2 128.7 153.4 125.9Z" fill="#AAEBD9"/>
<path d="M247.6 124.1C247.2 118.4 244 113.2 243.6 107.5C243.4 104.6 244 101.6 242.8 98.9999C242.6 98.4999 242.3 98.1 242.1 97.7C236.9 99.6 231.8 101.7 226.8 104.1C222.5 106.2 217.8 109.9 218.8 114.6C219.4 117.4 222 119.4 224.3 121C231.1 125.7 237.9 130.5 244.7 135.2C246.7 131.9 247.9 128 247.6 124.1Z" fill="#00BECE"/>
<path d="M347.4 72.8C351.4 71.1 356 68.4 357.4 64.7C354.2 64.6 350.9 64.4 347.8 63.5C341.4 65 335 66.7 328.7 68.7C316.6 72.5 304.9 77.5 292.9 81.9C294.7 82.4 296.5 82.8 298.3 83.1C315.1 85.9 331.8 79.3 347.4 72.8Z" fill="#322B98"/>
<path d="M160.2 120.5L156.1 124.1C157.8 123.2 159.2 122 160.2 120.5Z" fill="#91F83A"/>
<path d="M132.4 102.4C139.3 103 146.5 104.6 151.8 109.1C153.7 110.7 155.4 112.7 156.1 115.1C156.8 117.6 156.4 120.3 155.3 122.7C157 122 158.6 121.2 160.3 120.4C162.8 116.7 163.5 111.6 162.5 107.1C161.1 100.7 157.2 95.3 153.9 89.6C150.6 84 147.9 77.5 149.1 71.1C149.2 70.6 149.3 70.2 149.4 69.7C137.6 73.9 125.9 78.1 114.1 82.3C107.6 84.6 101 87 95.4 91C91.8 93.5 88.6 96.8 86.5 100.7C88.5 101 90.6 101.2 92.6 101.4C105.8 102.8 119.2 101.2 132.4 102.4Z" fill="#BD48FF"/>
<path d="M83.8999 109C95.9999 110.7 107.8 113.6 119.4 117.5C128.8 120.7 138.4 124.6 148.1 125.7C150.5 124.8 152.9 123.8 155.2 122.8C156.3 120.4 156.7 117.7 156 115.2C155.3 112.8 153.6 110.8 151.7 109.2C146.4 104.7 139.2 103.2 132.3 102.5C119.1 101.3 105.7 102.9 92.3999 101.6C90.3999 101.4 88.2999 101.1 86.2999 100.9C85.0999 103.1 84.2999 105.4 83.8999 107.9V109Z" fill="#FF6BEE"/>
<path d="M153.9 89.6C157.2 95.2 161.1 100.7 162.5 107.1C163.5 111.6 162.8 116.7 160.3 120.4H160.4L160.3 120.5C159.3 122 157.9 123.3 156.2 124.1L160.3 120.5C160.3 120.5 160.3 120.4 160.4 120.4C158.8 121.2 157.1 122 155.4 122.7C155 123.7 154.4 124.6 153.8 125.5C153.7 125.6 153.6 125.8 153.5 125.9C155.6 125.9 157.6 125.8 159.7 125.4C162.3 125 165 124.2 167.2 122.6C172.3 119 173.8 112.1 174.3 105.8C175.2 93.9 173.7 81.5 167.5 71.4C166 69 164 66.6 161.2 66.3C159.6 66.1 158.1 66.7 156.6 67.2C154.2 68 151.9 68.9 149.5 69.7C149.4 70.1 149.3 70.6 149.2 71.1C147.8 77.5 150.6 84 153.9 89.6Z" fill="#FFA8FC"/>
<path d="M160.3 120.4C160.2 120.5 160.2 120.5 160.2 120.5L160.3 120.4Z" fill="#91F83A"/>
<path d="M153.7 125.5C154.3 124.6 154.9 123.7 155.3 122.7C152.9 123.7 150.6 124.7 148.2 125.6C149.9 125.8 151.7 125.9 153.4 125.9C153.5 125.8 153.6 125.7 153.7 125.5Z" fill="#91F83A"/>
<path d="M299 25.7C303.1 27.6 307.2 29.5 311.4 31.2C310.8 9.1 310.3 -12.9 309.7 -35C309.6 -38.1 309.5 -41.4 307.6 -43.9C306.9 -44.8 305.9 -45.6 304.7 -45.7C303.4 -45.7 302.4 -44.8 301.5 -43.9C295.2 -37.6 290.6 -29.9 285.4 -22.6C276 -9.50001 264.5 2.09999 251.3 11.4C248.5 13.4 245.6 15.4 243.8 18.3C243.3 19.1 243 19.9 242.7 20.8C250 17.7 257.6 14.6 265.5 14.4C277.5 14.3 288.3 20.6 299 25.7Z" fill="#FF6BEE"/>
<path d="M244.2 27.9L244.7 27.6C264.7 35.8 285.6 44.2 307.2 42.8C308.7 42.7 310.4 42.4 311.2 41.2C311.7 40.4 311.7 39.4 311.6 38.5C311.5 36.1 311.5 33.8 311.4 31.4C307.2 29.6 303.1 27.8 299 25.9C288.3 20.8 277.5 14.4 265.6 14.6C257.7 14.8 250.1 17.9 242.8 21C242.1 23.4 242.4 26.1 244.2 27.9Z" fill="#FFA8FC"/>
<path d="M357.7 60.8C357.7 60.9 357.7 61.1 357.8 61.2C366.9 59.2 376 57.2 384.9 54.7C403.1 49.6 420.7 42.5 438.6 36.5C438.5 33.9 438.4 31.2 438.3 28.6C438.2 26.8 438.2 24.9 437.5 23.2C436.8 21.3 435.3 19.7 433.9 18.1C427.9 11.5 421.7 4.69999 413.6 1.09999C412.2 0.49999 410.6 -0.100013 409.1 0.299987C407.6 0.599987 406.3 1.69999 405.2 2.79999C394.9 12.6 386.7 24.3 376.4 34.1C368.3 41.7 358.4 48.2 347.7 50.2C350 51.9 352.2 53.8 354.3 55.8C355.7 57.2 357.2 58.8 357.7 60.8Z" fill="#00BECE"/>
<path d="M357.8 61.2C358 62.4 357.9 63.6 357.4 64.7C357.9 64.7 358.5 64.7 359 64.7C384.7 65.2 411.8 65.2 434.2 52.6C435.4 51.9 436.7 51.2 437.5 50C438.9 48.1 438.9 45.5 438.8 43.1C438.7 40.8 438.7 38.6 438.6 36.3C420.7 42.3 403.1 49.5 384.9 54.5C375.9 57.2 366.8 59.2 357.8 61.2Z" fill="#363639"/>
<path d="M338.6 50.7L338 51.4C337.4 56.1 340.9 60.5 345.2 62.5C346.1 62.9 346.9 63.2 347.8 63.5C351.1 62.7 354.4 62 357.7 61.2C357.7 61.1 357.7 60.9 357.6 60.8C357.1 58.8 355.7 57.2 354.2 55.7C352.1 53.7 349.9 51.8 347.6 50.1C344.7 50.7 341.7 50.9 338.6 50.7Z" fill="#00BECE"/>
<path d="M357.8 61.2C354.5 61.9 351.2 62.7 347.9 63.5C351 64.4 354.2 64.6 357.5 64.7C357.8 63.6 358 62.5 357.8 61.2Z" fill="#00BECE"/>
<path d="M429.4 93.3C427.4 97.8 431.2 102.5 434.5 106.2C440.1 112.3 445 118.9 449.3 125.9C450 127 450.6 128.2 450.4 129.5C450.3 129.8 450.3 130 450.1 130.2C451.4 130.5 452.7 130.8 454.1 131.1C459.1 132.2 464.2 132.7 469.3 133.1C469.3 132.3 469.2 131.4 469.1 130.6C466.2 113.1 460.2 96 451.7 80.4C446 82.7 440.4 85.3 435 88.3C432.7 89.6 430.4 91 429.4 93.3Z" fill="#BD48FF"/>
<path d="M450.1 130.2C449.3 131.8 447 132.3 445.1 132.5C443.9 132.6 442.8 132.7 441.6 132.8C442.8 134.3 444 135.8 445.6 136.9C450.3 140.1 456.5 139.4 462.1 138.7C464.7 138.3 467.7 137.7 468.8 135.3C469.1 134.6 469.2 133.9 469.2 133.2C464.1 132.7 459 132.2 454 131.2C452.8 130.8 451.4 130.5 450.1 130.2Z" fill="#BD48FF"/>
<path d="M447.1 74.7C445.7 72.5 442.4 73.3 440.1 74.5C436.2 76.5 432.6 78.9 429.3 81.7C427.2 83.4 425.3 85.3 423.9 87.7C421 92.6 421.2 98.8 423.1 104.2C425 109.6 428.3 114.3 431.6 118.9C433.7 121.8 435.7 124.7 437.8 127.6C438.6 127.7 439.3 127.8 440.1 128C443.5 128.6 446.8 129.5 450.1 130.3C450.2 130.1 450.3 129.8 450.4 129.6C450.7 128.3 450 127.1 449.3 126C445 119 440 112.4 434.5 106.3C431.2 102.7 427.4 97.9 429.4 93.4C430.4 91.1 432.8 89.7 435 88.5C440.4 85.6 446 82.9 451.7 80.6C450.6 78.7 449.5 76.7 448.4 74.8L447.1 74.7Z" fill="#363639"/>
<path d="M450.1 130.2C446.8 129.4 443.4 128.5 440.1 127.9C439.3 127.8 438.6 127.6 437.8 127.5C438.6 128.7 439.5 129.8 440.3 131C440.7 131.6 441.2 132.2 441.7 132.9C442.9 132.8 444 132.7 445.2 132.6C447 132.3 449.3 131.7 450.1 130.2Z" fill="#91F83A"/>
</g>
</svg>
