<svg width="1440" height="900" viewBox="0 0 1440 900" fill="none" xmlns="http://www.w3.org/2000/svg">
<g opacity="0.05">
<path d="M1224.65 893.496C1114.28 916.478 998.588 876.994 907.42 813.906C918.733 826.06 927.866 840.108 934.406 855.994C986.62 1018.73 797.389 1117.03 993.708 1328.39C1060.88 1399.04 1149.8 1444.88 1217.29 1515.74C1301.68 1489.32 1350.5 1408.94 1392.99 1333.92C1531.22 1090.33 1670.71 843.548 1744.8 573.59C1754.34 538.938 1762.85 503.144 1763.17 467.187C1645.59 637.823 1428.26 839.979 1224.65 893.496Z" stroke="white" stroke-width="2" stroke-miterlimit="10"/>
<path d="M993.553 1328.28C797.185 1116.67 986.461 1019.3 934.406 855.995C928.02 840.213 918.733 826.061 907.42 813.906C888.58 800.923 870.212 786.911 852.415 772.387L852.261 772.283C838.335 764.65 823.679 758.094 808.655 752.413C718.734 872.587 542.3 1112.55 604.752 1265.15C627.492 1316.49 676.514 1350.59 725.536 1377.72C794.907 1415.94 868.778 1445.52 942.445 1474.74C1030.31 1509.53 1129.58 1543.74 1217.29 1515.74C1149.49 1444.67 1060.73 1398.94 993.553 1328.28Z" stroke="white" stroke-width="2" stroke-miterlimit="10"/>
<path d="M1177.91 -483.829C1220.8 -443.327 1254.02 -393.196 1286.78 -344.049C1430.63 -125.544 1581.16 89.3986 1712.11 316.013C1739.11 362.384 1764.91 412.203 1762.86 466.979C1787.21 432.022 1809.65 395.554 1830.05 358.144C1848.77 323.868 1866.21 287.829 1870.36 248.856C1875.01 206.172 1863.45 163.524 1851.99 122.064C1842.39 87.4797 1832.53 52.274 1813.51 21.645C1797.96 -3.49014 1776.6 -24.6948 1755.54 -45.691C1581.74 -217.311 1410.59 -391.852 1235.59 -562.035C1218.62 -534.66 1198.68 -508.855 1177.91 -483.829Z" stroke="white" stroke-width="2" stroke-miterlimit="10"/>
<path d="M1712.26 316.117C1581.06 89.5525 1430.79 -125.44 1286.94 -343.945C1254.02 -393.196 1220.85 -443.069 1178.06 -483.725C1103.42 -393.414 1011.05 -297.815 1003.41 -176.062C995.154 -34.5028 1108.6 87.2531 1125.58 228.377C1137.98 331.135 1097.31 433.662 1041.78 520.964C1009.62 573.096 965.557 623.233 902.347 631.647C874.016 668.174 845.272 704.647 816.941 741.175C828.472 751.68 840.109 762.031 852.058 771.921C852.212 772.025 852.211 772.025 852.211 772.025C873.128 783.269 891.963 796.923 907.216 813.543C998.385 876.632 1114.23 916.22 1224.44 893.134C1427.95 839.771 1645.38 637.461 1762.91 466.566C1765.06 412.307 1739.27 362.488 1712.26 316.117Z" stroke="white" stroke-width="2" stroke-miterlimit="10"/>
<path d="M852.261 772.283C869.953 786.96 888.321 800.972 907.265 813.802C892.012 797.181 873.177 783.527 852.261 772.283Z" stroke="white" stroke-width="2" stroke-miterlimit="10"/>
<path d="M1045.72 291.564C1055.52 320.217 1064.95 350.415 1061.11 380.62C1057.45 409.588 1042.19 435.428 1026.43 460.026C988.394 519.183 945.833 575.728 902.347 631.647C965.557 623.233 1009.62 573.096 1041.78 520.964C1097.15 433.557 1137.83 331.031 1125.58 228.377C1108.49 87.4071 995.049 -34.3488 1003.3 -175.908C1010.79 -297.765 1103.16 -393.364 1177.96 -483.571C1134.56 -524.644 1078.76 -556.365 1019.35 -560.202C954.672 -420.239 894.874 -277.868 840.119 -133.654C925.261 -0.960339 994.334 142.193 1045.72 291.564Z" stroke="white" stroke-width="2" stroke-miterlimit="10"/>
<path d="M902.243 631.8C945.728 575.881 988.29 519.337 1026.33 460.179C1042.09 435.581 1057.34 409.742 1061.01 380.774C1064.84 350.569 1055.52 320.217 1045.61 291.717C994.229 142.347 925.261 -0.960793 840.069 -133.913C790.627 -3.84838 745.403 127.949 704.556 260.914C668.312 378.125 636.904 511.417 704.287 617.257C768.618 632.067 836.296 640.607 902.243 631.8Z" stroke="white" stroke-width="2" stroke-miterlimit="10"/>
<path d="M816.836 741.328C814.179 744.92 811.263 748.562 808.502 752.308C823.371 757.885 838.181 764.545 852.107 772.179C840.108 762.031 828.522 751.938 816.836 741.328Z" stroke="white" stroke-width="2" stroke-miterlimit="10"/>
<path d="M816.836 741.328C845.014 704.697 873.912 668.328 902.243 631.801C836.296 640.608 768.619 632.068 704.03 617.307C734.231 664.269 776.254 703.062 816.836 741.328Z" stroke="white" stroke-width="2" stroke-miterlimit="10"/>
<path d="M771.802 698.025C746.91 673.08 722.852 646.903 704.03 617.307C524.427 576.327 364.335 441.85 320.051 259.77C247.828 251.971 175.414 234.832 102.878 227.495C-12.9139 216.025 -128.941 229.782 -244.863 243.385C-282.254 333.76 -307.094 429.489 -318.532 526.656C-328.466 608.666 -328.057 694.312 -364.048 769.684C-197.36 862.574 5.69667 764.426 180.077 835.343C349.365 684.223 602.748 674.973 808.502 752.308C811.263 748.562 814.179 744.92 816.836 741.328C801.563 727.391 786.553 712.733 771.802 698.025Z" stroke="white" stroke-width="2" stroke-miterlimit="10"/>
<path d="M263.02 1192.55C296.419 1161.48 313.979 1116.31 321.117 1071.27C341.167 960.386 284.83 875.057 180.077 835.343C144.562 866.556 113.91 902.86 90.1896 943.858C34.6378 1041.48 4.72611 1110.86 26.226 1212.13C100.942 1246.11 200.846 1250.19 263.02 1192.55Z" stroke="white" stroke-width="2" stroke-miterlimit="10"/>
<path d="M1275.09 1654.64C1280.73 1602.52 1253.83 1555.32 1217.13 1515.64C1129.43 1543.63 1030.16 1509.43 942.291 1474.64C868.778 1445.52 794.907 1415.94 725.382 1377.62C676.361 1350.48 627.184 1316.28 604.598 1265.04C542.251 1112.29 718.268 872.945 808.502 752.308C602.902 675.077 349.519 684.327 180.077 835.343C284.626 874.694 341.371 960.749 321.117 1071.27C299.399 1227.07 159.988 1271.04 26.1217 1212.29C28.935 1222.73 32.8859 1232.82 38.1829 1242.25C53.3633 1268.93 78.503 1288.2 102.927 1306.54C371.998 1509.65 646.823 1716.21 965.475 1826.87C1076.69 1864.67 1157.76 1869.02 1224.11 1762.76C1247.36 1729.76 1270.72 1694.59 1275.09 1654.64Z" stroke="white" stroke-width="2" stroke-miterlimit="10"/>
<path d="M19.6756 1155.13C19.1776 1074.59 44.5516 1026.18 90.1896 943.858C113.91 902.86 144.666 866.402 180.077 835.343C5.69675 764.427 -197.36 862.574 -364.048 769.684C-388.563 820.479 -430.624 865.006 -482.282 881.243C-356.351 966.976 -229.898 1051.94 -103.341 1136.75C-61.8056 1164.65 -19.5503 1192.82 26.2757 1212.39C21.2507 1193.94 19.7428 1174.27 19.6756 1155.13Z" stroke="white" stroke-width="2" stroke-miterlimit="10"/>
<path d="M310.396 104.512C303.26 156.516 307.212 209.065 320.05 259.77C440.214 273.077 580.051 248.711 668.282 162.214C788.276 -13.9773 704.503 -264.136 502.343 -331.849C470.95 -271.56 439.402 -211.376 408.113 -151.241C365.784 -69.8269 322.769 13.5939 310.396 104.512Z" stroke="white" stroke-width="2" stroke-miterlimit="10"/>
<path d="M-106.534 -113.141L-102.003 -111.87C-101.603 17.5772 -201.074 124.32 -244.913 243.127C-128.837 229.628 -12.8597 215.613 102.828 227.236C175.364 234.574 247.778 251.713 320.001 259.512C279.016 113.364 338.83 -24.0544 408.064 -151.499C439.457 -211.788 471.005 -271.973 502.294 -332.107C383.929 -372.952 252.688 -345.685 127.908 -327.297C36.3383 -313.826 -55.9679 -305.572 -148.339 -302.529C-107.779 -246.979 -88.2114 -178.013 -106.534 -113.141Z" stroke="white" stroke-width="2" stroke-miterlimit="10"/>
<path d="M692.009 595.912C640.543 493.438 670.586 370.455 704.452 261.068C745.403 127.95 790.677 -3.58975 839.965 -133.759C802.325 -193.621 763.105 -256.126 762.325 -326.296C761.341 -403.794 809.577 -453.127 854.766 -516.204C906.84 -540.022 961.393 -564.184 1019.05 -560.411C1027.58 -577.323 1035.02 -606.882 1054.8 -602.921C1113.94 -640.153 1189.22 -606.019 1235.64 -561.777C1268.26 -613.596 1298.61 -679.31 1279.24 -740.278C1258.5 -803.525 1185.79 -837.485 1119.38 -835.285C1052.86 -832.931 991.297 -802.733 931.647 -773.037C850.662 -732.404 767.606 -690.703 697.393 -634.462L697.289 -634.308C669.785 -612.272 644.432 -588.105 621.688 -560.823L621.167 -560.053C581.559 -483.985 541.847 -407.763 502.239 -331.695C704.449 -263.723 788.221 -13.5649 668.178 162.368C579.688 248.915 440.368 273.182 319.946 259.924C364.23 442.004 524.322 576.481 703.925 617.461C699.746 610.363 695.825 603.214 692.009 595.912Z" stroke="white" stroke-width="2" stroke-miterlimit="10"/>
<path d="M-1492.25 -438.491C-1487.83 -400.229 -1457.14 -370.909 -1428.23 -345.264C-1273.83 -207.681 -1119.7 -70.0487 -965.198 67.38C-746.271 284.161 -534.543 277.703 -244.759 243.231C-200.815 124.27 -101.344 17.5279 -101.848 -111.765L-106.379 -113.036C-88.211 -178.013 -107.779 -246.979 -148.031 -302.32C-342.476 -295.84 -537.734 -312.375 -728.291 -351.113C-735.462 -336.874 -740.577 -321.692 -745.538 -306.405C-773.386 -222.823 -801.234 -139.24 -829.082 -55.6571C-839.366 -24.88 -862.963 13.2812 -893.894 2.89278C-916.384 -4.69994 -922.111 -33.0655 -927.669 -56.3738C-955.405 -172.657 -1060.39 -251.169 -1158.23 -319.672C-1256.07 -386.833 -1350.95 -458.049 -1450.83 -521.872C-1478.01 -501.639 -1496.08 -471.641 -1492.25 -438.491Z" stroke="white" stroke-width="2" stroke-miterlimit="10"/>
</g>
</svg>
