<svg width="72" height="50" viewBox="0 0 72 50" fill="none" xmlns="http://www.w3.org/2000/svg">
<path d="M68.3858 0.239529C66.13 -0.504067 63.6743 0.533221 62.6307 2.66403C62.4995 2.95147 62.387 3.24516 62.2933 3.5451C61.9434 3.02021 61.5247 2.53905 61.056 2.11414C59.6063 0.933134 57.5943 0.708188 55.9196 1.54551C55.6259 1.68923 55.351 1.87044 55.0948 2.07665C55.0323 2.12664 54.9698 2.18288 54.9073 2.23287C54.8261 2.3016 54.8386 2.32035 54.7386 2.28286C52.4828 1.33305 49.8709 2.25787 48.7086 4.40742C48.3712 3.91377 47.9588 3.47636 47.4839 3.11393C45.3781 1.56426 42.4099 2.01416 40.854 4.11998C40.8227 4.16372 40.7978 4.20121 40.7665 4.24495C38.7607 2.72651 36.2549 2.00167 33.7492 2.22662C31.3372 2.40158 29.094 3.53884 27.5193 5.37596C27.1506 5.81337 26.8132 6.28203 26.5195 6.76943C25.7821 5.86337 24.8511 5.13851 23.7888 4.65736C22.7765 4.20746 21.6955 3.93877 20.5895 3.87003C19.296 3.7763 17.9962 3.86378 16.7215 4.11998C15.5218 4.35743 14.4408 4.98229 13.6284 5.8946C13.466 6.07582 13.316 6.27578 13.1785 6.47574C11.1727 5.07603 8.72943 4.46365 6.30494 4.74485C4.10539 4.95105 1.68715 5.80713 0.568634 7.85045C0.231204 8.46907 0.0374922 9.15643 0 9.85629C0 10.5874 0.0687273 11.3122 0.206199 12.0308C0.39366 13.4118 0.568634 14.799 0.724852 16.18C0.87482 17.4984 0.999785 18.8232 1.10601 20.1479C1.16225 20.829 1.206 21.5164 1.24974 22.1975C1.25599 22.8598 1.34348 23.5159 1.51219 24.1533C1.69965 24.7344 1.99334 25.2781 2.38701 25.7467C2.43075 25.803 2.48073 25.8592 2.53072 25.9092C2.53696 25.9154 2.58072 25.9592 2.58072 25.9654C2.56197 26.0029 2.54323 26.0404 2.52448 26.0779C2.44325 26.2466 2.36826 26.4153 2.30577 26.5903C2.1933 26.909 2.11206 27.2402 2.06832 27.5776C2.01208 28.3149 2.03708 29.0585 2.13706 29.7959C2.1933 30.552 2.25578 31.3143 2.32452 32.0704C2.58696 35.1073 2.89313 38.1317 3.24306 41.1623C3.28055 41.5247 3.34307 41.8809 3.43055 42.2308C3.51803 42.5557 3.64924 42.8744 3.80546 43.1744C4.12414 43.7805 4.57403 44.3116 5.11767 44.7303C6.25493 45.5114 7.59218 45.9363 8.97314 45.955C11.7351 46.0862 14.4595 45.2614 16.684 43.6305C17.2527 43.2181 17.7775 42.7432 18.2524 42.2308C18.9586 43.1744 19.9896 43.8242 21.1393 44.0679C23.1702 44.4741 25.2323 43.518 26.2321 41.6997L27.6692 42.6495C27.9254 42.8307 28.1941 42.9931 28.4753 43.1368C30.2 43.9867 32.2683 43.7117 33.7117 42.4433C33.818 42.3495 33.9242 42.2495 34.0242 42.1433C34.0679 42.0933 34.1241 41.9996 34.1866 42.0246C34.2741 42.0683 34.3616 42.1058 34.4429 42.1433C36.6361 43.1181 39.1169 43.2306 41.3914 42.462C42.5224 42.0558 43.5597 41.4247 44.4408 40.6124C44.4908 40.5624 44.547 40.5187 44.597 40.4687C45.2406 41.4185 46.2029 42.1058 47.3089 42.412C48.2587 42.6682 49.2648 42.6182 50.1833 42.2745C50.2583 42.2433 50.3333 42.212 50.4083 42.1808L50.5145 42.4308L50.7394 42.9494C51.3893 44.4491 52.0329 45.9738 52.8015 47.4235C53.2327 48.2858 53.9138 49.0044 54.7573 49.473C55.8321 50.0354 57.0881 50.1541 58.2504 49.798C59.3502 49.3918 60.3437 48.7544 61.1623 47.9171C61.7621 47.3672 62.3433 46.7924 62.9369 46.2362C63.5805 45.6301 64.2179 45.0115 64.8053 44.3429C65.074 44.0492 65.3177 43.7305 65.5426 43.3993C65.7551 43.0431 65.8863 42.637 65.9176 42.2245C66.13 40.2937 65.0115 38.4566 63.1931 37.763C63.1369 37.7442 63.1681 37.713 63.1806 37.663L63.2119 37.5318L63.2681 37.2631L63.3931 36.6882C63.4743 36.3195 63.5618 35.9508 63.643 35.5822C63.9742 34.12 64.3116 32.6578 64.6553 31.2018C65.3177 28.4274 66.005 25.6593 66.7174 22.9036C67.3422 20.4791 67.9859 18.0608 68.6545 15.6488C69.1794 13.743 69.723 11.8496 70.2791 9.95001C70.6353 8.73777 70.9977 7.53176 71.3852 6.33201C72.0725 4.33868 71.3664 2.13289 69.648 0.901899C69.2793 0.60821 68.8482 0.389497 68.3858 0.239529Z" fill="white"/>
<path d="M68.3858 0.239529C66.13 -0.504067 63.6743 0.533221 62.6307 2.66403C62.4995 2.95147 62.387 3.24516 62.2933 3.5451C61.9433 3.02021 61.5247 2.53905 61.056 2.11414C59.6063 0.933134 57.5943 0.708188 55.9196 1.54551C55.6259 1.68923 55.351 1.87044 55.0948 2.07665C55.0323 2.12664 54.9698 2.18288 54.9073 2.23287C54.8261 2.3016 54.8386 2.32035 54.7386 2.28286C52.4828 1.33305 49.8709 2.25787 48.7086 4.40742C48.3712 3.91377 47.9588 3.47636 47.4839 3.11393C45.3781 1.56426 42.4099 2.01416 40.854 4.11998C40.8227 4.16372 40.7978 4.20121 40.7665 4.24495C38.7607 2.72651 36.2549 2.00167 33.7492 2.22662C31.3372 2.40158 29.094 3.53884 27.5193 5.37596C27.1506 5.81337 26.8132 6.28203 26.5195 6.76943C25.7821 5.86337 24.8511 5.13851 23.7888 4.65736C22.7765 4.20746 21.6955 3.93877 20.5895 3.87003C19.296 3.7763 17.9962 3.86378 16.7215 4.11998C15.5218 4.35743 14.4408 4.98229 13.6284 5.8946C13.466 6.07582 13.316 6.27578 13.1785 6.47574C11.1727 5.07603 8.72943 4.46365 6.30494 4.74485C4.10539 4.95105 1.68715 5.80713 0.568634 7.85045C0.231204 8.46907 0.0374922 9.15643 0 9.85629C0 10.5874 0.0687273 11.3122 0.206199 12.0308C0.39366 13.4118 0.568634 14.799 0.724851 16.18C0.87482 17.4984 0.999785 18.8232 1.10601 20.1479C1.16225 20.829 1.206 21.5164 1.24974 22.1975C1.25599 22.8598 1.34348 23.5159 1.51219 24.1533C1.69965 24.7344 1.99334 25.2781 2.38701 25.7467C2.43075 25.803 2.48073 25.8592 2.53072 25.9092C2.53696 25.9154 2.58072 25.9592 2.58072 25.9654C2.56197 26.0029 2.54323 26.0404 2.52448 26.0779C2.44325 26.2466 2.36826 26.4153 2.30577 26.5903C2.1933 26.909 2.11206 27.2402 2.06832 27.5776C2.01208 28.3149 2.03708 29.0585 2.13706 29.7959C2.1933 30.552 2.25578 31.3081 2.32452 32.0704C2.58696 35.1073 2.89313 38.1317 3.24306 41.1623C3.28055 41.5247 3.34307 41.8809 3.43055 42.2308C3.51803 42.5557 3.64924 42.8744 3.80546 43.1744C4.12414 43.7805 4.57403 44.3116 5.11767 44.7303C6.25493 45.5114 7.59218 45.9363 8.97314 45.955C11.7351 46.0862 14.4595 45.2614 16.684 43.6305C17.2526 43.2181 17.7775 42.7494 18.2524 42.2308C18.9586 43.1744 19.9896 43.8242 21.1393 44.0679C23.1702 44.4741 25.2323 43.518 26.232 41.6997L27.6692 42.6495C27.9254 42.8307 28.1941 42.9931 28.4753 43.1368C30.2 43.9867 32.2683 43.7117 33.7117 42.4433C33.818 42.3495 33.9242 42.2495 34.0242 42.1433C34.0679 42.0933 34.1241 41.9996 34.1866 42.0246C34.2741 42.0683 34.3616 42.1058 34.4429 42.1433C36.6361 43.1181 39.1169 43.2306 41.3914 42.462C42.5224 42.0558 43.5597 41.4247 44.4408 40.6124C44.4908 40.5624 44.547 40.5187 44.597 40.4687C45.2406 41.4185 46.2029 42.1058 47.3089 42.412C48.2587 42.6682 49.2648 42.6182 50.1833 42.2745C50.2583 42.2433 50.3333 42.212 50.4083 42.1808L50.5145 42.4308L50.7394 42.9494C51.3893 44.4491 52.0329 45.9738 52.8015 47.4235C53.2327 48.2858 53.9138 49.0044 54.7573 49.473C55.8321 50.0354 57.0881 50.1541 58.2504 49.798C59.3502 49.3918 60.3437 48.7544 61.1623 47.9171C61.7621 47.3672 62.3433 46.7924 62.9369 46.2362C63.5805 45.6301 64.2241 45.0115 64.8053 44.3429C65.074 44.0492 65.3176 43.7305 65.5426 43.3993C65.7551 43.0431 65.8863 42.637 65.9175 42.2245C66.13 40.2937 65.0115 38.4566 63.1931 37.763C63.1368 37.7442 63.1681 37.713 63.1806 37.663L63.2119 37.5318L63.2681 37.2631C63.3118 37.0694 63.3493 36.8757 63.3931 36.6882C63.4743 36.3195 63.5618 35.9508 63.643 35.5822C63.9742 34.12 64.3116 32.6578 64.6553 31.2018C65.3177 28.4274 66.005 25.6593 66.7174 22.9036C67.3422 20.4791 67.9859 18.0608 68.6545 15.6488C69.1794 13.743 69.723 11.8496 70.2791 9.95001C70.6353 8.73777 70.9977 7.53176 71.3852 6.33201C71.7101 5.36971 71.7226 4.32619 71.4227 3.35139C70.9852 1.87045 69.848 0.720679 68.3858 0.239529Z" fill="white"/>
<path d="M13.397 12.387C13.022 10.3624 11.5349 8.73154 9.55403 8.16916C7.58569 7.56928 4.97371 7.89421 3.79271 8.86276C3.74897 8.90025 3.70525 8.93775 3.66151 8.97524C3.65526 8.98149 3.64899 8.98773 3.64275 8.98773C3.6365 8.98773 3.62401 9.00648 3.61151 9.01898C3.59276 9.03773 3.574 9.06272 3.55525 9.08147C3.53651 9.10022 3.52404 9.11896 3.50529 9.14395C3.48655 9.16895 3.47404 9.18145 3.46155 9.2002C3.44905 9.21894 3.43029 9.25019 3.41155 9.26893C3.3928 9.28768 3.38655 9.30642 3.37406 9.32517C3.36156 9.34392 3.34281 9.37516 3.33031 9.40015C3.31781 9.42515 3.31157 9.4439 3.29907 9.46264C3.28658 9.48139 3.27409 9.51263 3.26784 9.53762C3.26159 9.56262 3.24907 9.58761 3.24282 9.60636C3.23657 9.6251 3.22409 9.65635 3.21784 9.67509C3.21159 9.69384 3.20536 9.73134 3.19911 9.75633C3.19286 9.78133 3.1866 9.80007 3.1866 9.82507C3.1866 9.85006 3.17409 9.8813 3.17409 9.91255C3.17409 9.94379 3.16784 9.95629 3.16784 9.98128C3.16784 10.0063 3.16162 10.0375 3.16162 10.0688C3.16162 10.1 3.16162 10.1188 3.16162 10.1437C3.16162 10.1687 3.16162 10.1937 3.16162 10.2187C3.16162 10.2437 3.16784 10.275 3.16784 10.3062C3.16784 10.3187 3.16784 10.3375 3.17409 10.35C3.81146 14.949 4.22387 18.4608 4.46132 22.8036C4.50506 23.6472 5.19869 24.3033 6.04226 24.3033C6.07351 24.3033 6.09851 24.3033 6.12975 24.3033C7.00457 24.2596 7.67316 23.5097 7.62942 22.6349C7.56693 21.5289 7.40447 19.3418 7.40447 19.3418C6.99831 19.2856 6.61088 19.1419 6.26095 18.9232C6.26095 18.9232 9.53526 18.8357 11.4849 17.3423C13.0595 16.2237 13.8156 14.2679 13.397 12.387ZM7.0608 15.6988C6.89834 14.2304 6.7046 12.7245 6.4859 11.1061C7.30448 10.9498 8.15433 11.0186 8.93541 11.3123C9.704 11.556 10.2414 12.2433 10.2976 13.0431C10.5038 15.1427 7.71692 15.6863 7.0608 15.6988Z" fill="#212026"/>
<path d="M57.2945 4.41366L57.3132 4.40116C58.0318 4.04498 58.9066 4.26369 59.369 4.9198C60.3501 6.27577 61.6061 7.86294 62.6934 9.20641C62.9745 9.55009 63.1245 9.73755 63.3682 10.0375C63.0308 10.9186 62.6246 11.7746 62.1497 12.5932C61.3374 11.5684 59.3378 9.03145 57.8069 7.13185C57.3882 6.64445 57.0695 6.07581 56.8633 5.46344C56.7509 5.05727 56.9258 4.61987 57.2945 4.41366Z" fill="#5C31FF"/>
<path d="M56.5881 5.20099C56.7631 5.96958 57.1254 6.67568 57.6503 7.26306C59.2125 9.20641 61.2684 11.8059 62.0432 12.7869C61.962 12.9306 61.887 13.0556 61.8245 13.1556C60.656 11.7496 58.4252 9.01895 56.7693 6.73817C56.4444 6.28827 56.3756 5.70713 56.5881 5.20099Z" fill="#5C31FF"/>
<path d="M43.7596 5.66967C44.4719 5.15728 45.4655 5.326 45.9716 6.03835C46.684 7.03814 47.6151 8.22539 48.6211 9.48138C48.8086 9.71883 48.971 9.93129 49.1647 10.1687C48.4899 10.9936 47.7463 11.7559 46.9339 12.4433L46.8527 12.3433C46.8277 12.312 44.297 9.14395 43.3909 7.88172C42.8785 7.16936 43.041 6.17582 43.7596 5.66967C43.7533 5.66967 43.7533 5.66967 43.7596 5.66967Z" fill="#212026"/>
<path d="M28.0628 21.8476C27.5317 22.3974 26.6881 22.4912 26.0507 22.0725L19.3771 17.6734L19.2646 17.1923C20.4394 17.9421 25.8508 21.4101 26.3569 21.6663C26.7131 21.8413 27.1068 21.935 27.5004 21.9475C27.6941 21.9475 27.8816 21.9163 28.0628 21.8476Z" fill="#212026"/>
<path d="M44.7782 33.8013C44.197 36.807 42.2974 39.3877 39.1481 39.7501C38.8731 39.7813 38.5982 39.8001 38.317 39.8001C36.4049 39.8063 34.5928 38.9565 33.3805 37.4818C32.4245 36.3383 31.7496 34.9823 31.4059 33.5326C30.0437 27.5276 33.0806 22.5224 37.3422 16.8236C37.6734 16.3737 37.9421 15.88 38.142 15.3552C39.0106 13.0806 38.5419 7.95044 34.2241 8.42535C31.5122 8.72528 30.9373 12.237 31.1248 13.743C31.6372 17.8171 34.5303 18.0421 35.0802 18.0421C35.2739 18.0421 35.4676 18.0171 35.6551 17.9609C35.955 17.8734 36.2424 17.7422 36.4924 17.5609C35.3989 18.6357 34.3928 19.798 33.4742 21.029C31.9871 20.6791 30.6748 19.798 29.7875 18.5607C28.8627 17.2548 28.2816 15.7363 28.0879 14.1492C27.7817 11.8121 28.4003 9.45638 29.8125 7.56928C30.7998 6.31329 32.262 5.5322 33.8492 5.40098C36.2299 5.07604 38.5919 6.07583 40.0167 8.00668C41.6413 10.3312 42.0287 13.3056 41.0539 15.9738C39.5667 20.3541 34.9615 24.1346 34.3991 29.0273C34.2804 29.9959 34.2803 30.9769 34.3928 31.9455C34.3928 31.9455 34.3928 31.9454 34.3928 31.9517C34.3928 32.0642 34.5553 34.7511 36.1175 36.1821C36.7736 36.782 37.6421 37.1006 38.5295 37.0756C38.6294 37.0756 38.7357 37.0694 38.8356 37.0631C40.604 36.9507 41.935 35.551 42.3099 33.4077C42.7473 30.9082 41.7725 27.7651 39.0919 26.4653C39.0106 26.4278 38.9606 26.3466 38.9669 26.2591C38.9981 25.953 39.1044 25.653 39.2856 25.4031C39.3481 25.3031 39.4355 25.2156 39.5355 25.1531C40.1416 24.7532 40.9289 24.7657 41.5226 25.1781C42.01 25.5218 42.4474 25.928 42.8223 26.3904C44.4595 28.4837 45.1593 31.1644 44.7782 33.8013Z" fill="#212026"/>
<path d="M40.3853 28.3837C40.1854 28.14 39.9542 27.9276 39.7042 27.7401C39.3418 27.4714 39.0981 27.0715 39.0106 26.6341C41.5976 27.8901 42.5411 30.9332 42.1162 33.3514C41.76 35.3948 40.5041 36.732 38.8357 36.8382C37.9046 36.9382 36.9673 36.632 36.2674 36.0071C36.03 35.7822 35.8175 35.526 35.6426 35.251C36.2674 36.1071 37.261 36.6133 38.317 36.6133C38.4732 36.6133 38.6294 36.6008 38.7857 36.5883C40.2603 36.4196 41.3726 34.7137 41.6601 33.1952C41.8663 31.4893 41.4101 29.7647 40.3853 28.3837Z" fill="#212026"/>
<path d="M37.4736 24.8781C37.2548 24.7719 37.1674 24.5095 37.2736 24.2907C37.3798 24.072 37.6423 23.9846 37.861 24.0908C37.886 24.1033 37.9109 24.1158 37.9297 24.1345C37.9734 24.1595 39.2482 24.9968 39.9605 25.4717C39.7606 25.6842 39.5919 25.9217 39.4606 26.1779C39.4106 26.1466 37.486 24.8844 37.4736 24.8781Z" fill="#212026"/>
<path d="M44.8531 21.029C44.0783 20.6166 43.7908 19.6543 44.2032 18.8795C45.1031 17.2048 46.1403 15.4802 47.1526 13.818L47.5338 13.1869C47.9149 12.5558 49.2584 10.275 49.2584 10.275C50.0583 8.90029 50.7894 7.48183 51.4455 6.03213C51.8016 5.2323 52.7327 4.86987 53.5388 5.2198C54.3386 5.57598 54.7011 6.50704 54.3511 7.31312C53.4763 9.23147 52.489 11.0998 51.4017 12.9057C53.0014 14.874 54.5886 16.8424 55.7133 18.4108C56.2257 19.1232 56.057 20.1167 55.3447 20.6228C54.6323 21.129 53.6388 20.9665 53.1326 20.2542C52.2266 18.9919 50.9768 17.4173 49.6646 15.7989C48.7086 17.3798 47.8025 18.8857 47.0027 20.3792C46.5902 21.154 45.6279 21.4477 44.8531 21.029Z" fill="#212026"/>
<path d="M68.4107 5.25726C67.0485 9.40639 62.337 25.778 59.1189 41.5934C58.569 42.4183 57.8379 43.5868 57.8379 43.5868L58.9064 42.6432C59.6063 41.9684 60.3561 41.3498 61.1435 40.7874C61.6684 40.4874 62.3432 40.6749 62.6369 41.206C62.9306 41.7372 62.7494 42.4058 62.2182 42.6995C61.4184 43.2743 60.6685 43.9242 59.9937 44.6428C58.5002 46.0988 57.7129 46.8236 56.8818 46.8236C56.8444 46.8236 56.8069 46.8236 56.7694 46.8174C56.3944 46.7924 56.0508 46.6049 55.8258 46.2987C55.4321 45.7738 53.9887 42.4808 53.1701 40.5624C52.9327 40.0063 53.1888 39.3627 53.745 39.119C54.3011 38.8815 54.9447 39.1377 55.1884 39.6938C55.4259 40.25 55.6759 40.8186 55.9196 41.3747C57.9004 31.5893 60.4624 21.5351 62.4807 14.2116L63.618 10.1687C64.3928 7.46305 65.0176 5.40097 65.3926 4.26371C65.6675 3.43263 66.5611 2.97648 67.3922 3.25142C68.2232 3.52636 68.6856 4.42618 68.4107 5.25726Z" fill="#5C31FF"/>
<path d="M27.738 19.3855L22.8266 16.1487C22.108 16.3049 21.3644 16.2987 20.6458 16.1175C20.927 16.08 21.2019 16.0362 21.4769 15.9737C22.1955 15.8238 22.8641 15.5051 23.4265 15.0364L23.4389 15.0239C24.5137 14.1116 25.0886 12.7432 24.9824 11.3372C24.9511 10.0875 24.3762 8.91272 23.4077 8.12538C22.0705 7.05685 20.0459 6.75067 17.3839 7.22557C16.8216 7.32555 16.3092 7.61923 15.9467 8.06289C15.5968 8.51905 15.4094 9.07519 15.4156 9.65007C15.2219 13.7305 15.7218 17.8171 16.8966 21.735C17.1465 22.5724 18.0276 23.0535 18.8649 22.8036C18.9024 22.7911 18.9399 22.7786 18.9774 22.7661C19.7585 22.4474 20.1646 21.5913 19.9209 20.7852C19.6022 19.7105 19.3336 18.617 19.1274 17.5109C19.0836 17.3422 19.0523 17.161 19.0211 17.0173C19.0086 16.9548 19.0524 16.8923 19.1148 16.8798C19.1461 16.8736 19.1773 16.8798 19.2023 16.8986C20.4083 17.6734 25.9572 21.2351 26.4508 21.4851C26.857 21.6913 27.3194 21.7725 27.7755 21.7101C28.1942 21.6226 28.5004 21.2539 28.5004 20.8227C28.5067 20.2416 28.2192 19.7042 27.738 19.3855ZM18.6024 13.2368C18.5462 12.2433 18.5337 11.2497 18.5712 10.2562C20.4521 10.0187 21.6768 10.5874 21.8205 11.4809C21.9143 11.9121 21.7393 12.362 21.3831 12.6182C20.5583 13.1493 19.571 13.368 18.6024 13.2368Z" fill="#212026"/>
<path d="M55.8946 27.4838C55.5196 25.4593 54.0325 23.8283 52.0516 23.266C50.0833 22.6661 47.4713 22.991 46.2903 23.9533C46.2466 23.9908 46.2028 24.0283 46.1591 24.0658L46.1403 24.0783C46.1278 24.0908 46.1216 24.097 46.1091 24.1095C46.0904 24.1283 46.0716 24.1533 46.0529 24.172C46.0341 24.1908 46.0216 24.2095 46.0029 24.2345C45.9841 24.2595 45.9716 24.272 45.9591 24.2908C45.9466 24.3095 45.9279 24.3407 45.9091 24.3595C45.8904 24.3782 45.8841 24.397 45.8717 24.4157C45.8592 24.4345 45.8404 24.4657 45.8279 24.4907C45.8154 24.5157 45.8092 24.5344 45.7967 24.5532C45.7842 24.5719 45.7717 24.6032 45.7654 24.6282C45.7592 24.6532 45.7467 24.6782 45.7404 24.6969C45.7342 24.7157 45.7217 24.7469 45.7154 24.7656C45.7092 24.7844 45.7029 24.8219 45.6967 24.8469C45.6904 24.8719 45.6842 24.8906 45.6842 24.9156C45.6842 24.9406 45.6717 24.9719 45.6717 25.0031C45.6717 25.0343 45.6654 25.0468 45.6654 25.0656C45.6654 25.0843 45.6592 25.1218 45.6592 25.1531C45.6592 25.1843 45.6592 25.2031 45.6592 25.2281C45.6592 25.2531 45.6592 25.2781 45.6592 25.303C45.6592 25.328 45.6654 25.3593 45.6654 25.3905C45.6654 25.403 45.6654 25.4155 45.6717 25.4343C46.3091 30.0333 46.7277 33.5451 46.9589 37.8879C47.0027 38.7315 47.6963 39.3876 48.5399 39.3876C48.5711 39.3876 48.5961 39.3876 48.6273 39.3876C49.5021 39.3439 50.1708 38.594 50.127 37.7192C50.0645 36.6132 49.9021 34.4262 49.9021 34.4262C49.4959 34.3699 49.1085 34.2262 48.7585 34.0075C48.7585 34.0075 52.0329 33.92 53.9825 32.4266C55.5571 31.3205 56.307 29.3709 55.8946 27.4838ZM49.5521 30.7956C49.3897 29.3272 49.1959 27.8213 48.9772 26.2091C49.7958 26.0529 50.6457 26.1216 51.4268 26.4153C52.1953 26.659 52.7327 27.3464 52.789 28.1462C53.0014 30.2395 50.2145 30.7831 49.5521 30.7956Z" fill="#212026"/>
<path d="M31.4433 37.538L26.4506 34.245C25.7508 34.3887 25.0322 34.3762 24.3385 34.2012C25.3383 34.12 26.2944 33.7513 27.088 33.1389C28.1628 32.2266 28.7376 30.8582 28.6314 29.4522C28.6002 28.2025 28.0316 27.0277 27.063 26.2404C25.7258 25.1718 23.7012 24.8657 21.0393 25.3406C20.4769 25.4405 19.9645 25.7405 19.6021 26.1841C19.2521 26.6403 19.0647 27.1964 19.0709 27.7713C18.8772 31.8517 19.3771 35.9383 20.5518 39.8563C20.8018 40.6936 21.6891 41.1748 22.5264 40.9248C23.3638 40.6749 23.8449 39.7876 23.595 38.9502C23.27 37.8567 23.0013 36.7507 22.7889 35.6322L29.7125 40.1937C30.4436 40.6749 31.4246 40.4749 31.912 39.7438C32.3806 39.0065 32.1807 38.0254 31.4433 37.538ZM22.2515 31.3518C22.1953 30.3583 22.1828 29.3647 22.2203 28.3712C24.1011 28.1337 24.8384 28.5211 25.0821 28.7211C25.3383 28.9336 25.4821 29.2585 25.4696 29.5959C25.5258 30.0271 25.3634 30.452 25.0322 30.7332C24.2074 31.2643 23.2201 31.4893 22.2515 31.3518Z" fill="#212026"/>
<path d="M7.82959 29.696L8.7794 39.5251C8.90438 39.5189 9.14808 39.5064 9.44802 39.4814C9.07935 36.2071 8.76065 32.9078 8.49821 29.621C8.292 29.646 8.04205 29.671 7.82959 29.696Z" fill="#212026"/>
<path d="M17.5403 33.2826C17.2091 30.1083 15.6219 27.8525 12.9725 26.7527C10.8417 25.9779 8.51714 25.9404 6.36759 26.6528L6.34887 26.659L6.3301 26.6653C6.3176 26.6715 6.30514 26.6777 6.28639 26.6777C6.25515 26.6902 6.22389 26.6965 6.18639 26.7152C6.16765 26.7215 6.14892 26.734 6.13018 26.7402C6.11143 26.7465 6.07393 26.7652 6.04894 26.7777C6.02395 26.7902 6.00518 26.8027 5.98643 26.8152C5.96768 26.8277 5.9427 26.8402 5.9177 26.859C5.89271 26.8777 5.87397 26.8902 5.84898 26.9089C5.82398 26.9277 5.81147 26.9339 5.79272 26.9527C5.77398 26.9714 5.74899 26.9902 5.724 27.0089C5.699 27.0277 5.69274 27.0402 5.674 27.0527C5.65525 27.0652 5.63027 27.0964 5.61152 27.1152C5.59278 27.1339 5.58028 27.1464 5.56778 27.1651C5.55528 27.1839 5.53652 27.2089 5.51778 27.2276C5.49903 27.2464 5.48653 27.2651 5.47403 27.2901C5.46153 27.3151 5.44904 27.3339 5.43654 27.3526C5.42404 27.3714 5.40529 27.3963 5.3928 27.4213C5.3803 27.4463 5.37406 27.4588 5.36156 27.4838C5.34906 27.5088 5.33657 27.5338 5.32407 27.5651C5.31157 27.5963 5.30534 27.6026 5.29909 27.6276C5.29284 27.6526 5.28035 27.6838 5.26785 27.7088C5.25536 27.7338 5.25534 27.7525 5.24909 27.7775C5.24284 27.8025 5.23661 27.8338 5.23036 27.8588C5.22411 27.8838 5.21785 27.9088 5.21785 27.94C5.21785 27.9712 5.21159 27.99 5.20534 28.0087C5.19909 28.0275 5.19909 28.0712 5.19909 28.1024C5.19909 28.1212 5.19912 28.1399 5.19287 28.1587C5.19287 28.1962 5.19287 28.2274 5.19287 28.2649C5.19287 28.2774 5.19287 28.2899 5.19287 28.3087C5.19287 28.3274 5.19287 28.3274 5.19287 28.3337V28.3399C5.50531 32.6015 5.9177 36.9069 6.42385 41.1497V41.156C6.4301 41.1872 6.43636 41.2185 6.43636 41.2497C6.44261 41.2685 6.44258 41.2935 6.44883 41.3122C6.45508 41.331 6.46134 41.356 6.46759 41.3747C6.47384 41.3934 6.48008 41.4309 6.49257 41.4622C6.49882 41.4747 6.50509 41.4934 6.51134 41.5059C6.52384 41.5372 6.53633 41.5684 6.54883 41.6059C6.55508 41.6184 6.56131 41.6309 6.56755 41.6434C6.58005 41.6746 6.59881 41.7059 6.61756 41.7371C6.6238 41.7496 6.63629 41.7684 6.64254 41.7809C6.66128 41.8059 6.67379 41.8371 6.69254 41.8621C6.70503 41.8808 6.71753 41.8933 6.73003 41.9121C6.74252 41.9308 6.76128 41.9558 6.78003 41.9746C6.79877 41.9933 6.81128 42.0121 6.83003 42.0308C6.84877 42.0496 6.86124 42.0683 6.87999 42.0808C6.89874 42.0933 6.9175 42.1183 6.93624 42.137C6.95499 42.1558 6.9675 42.1683 6.98625 42.1808C7.00499 42.1933 7.02997 42.212 7.04872 42.2308C7.06746 42.2495 7.08623 42.2558 7.10497 42.2745C7.12372 42.2933 7.1487 42.3057 7.16744 42.3182C7.18619 42.3307 7.21744 42.3495 7.24868 42.362C7.26743 42.3682 7.27993 42.3807 7.29868 42.387C7.39241 42.437 7.49237 42.4745 7.59235 42.4995C8.22972 42.7119 8.89835 42.8181 9.56696 42.8119C10.673 42.7994 11.7727 42.587 12.8038 42.1745C14.8409 41.3747 16.3905 40.3437 17.0404 38.3191C17.5528 36.6882 17.7215 34.976 17.5403 33.2826ZM14.0973 37.1506C13.5849 38.7315 11.8352 39.4314 10.3355 39.5938C9.50446 39.7063 8.69838 39.7313 8.69213 39.7313C8.64214 39.7313 8.59217 39.6938 8.59217 39.6376L7.62359 29.6146C7.61734 29.5584 7.66109 29.5084 7.71733 29.5022C7.79232 29.4897 8.29221 29.4334 8.61715 29.3959H8.64838C9.69816 29.2335 10.7667 29.3334 11.7665 29.6834C15.0033 30.8956 14.5222 35.8446 14.0973 37.1506Z" fill="#212026"/>
</svg>
