<svg width="32" height="26" viewBox="0 0 32 26" fill="none" xmlns="http://www.w3.org/2000/svg">
<path d="M31.9914 3.09834C30.8155 3.62096 29.5463 3.97559 28.2211 4.12491C29.5836 3.30366 30.6102 2.03445 31.1141 0.485279C29.8449 1.23187 28.4451 1.79181 26.9519 2.07178C25.7574 0.80258 24.0402 0 22.1551 0C18.5341 0 15.5851 2.94903 15.5851 6.56999C15.5851 7.0926 15.6411 7.57789 15.7531 8.06317C10.3029 7.7832 5.45011 5.17014 2.2211 1.19454C1.66116 2.16511 1.3252 3.28499 1.3252 4.4982C1.3252 6.7753 2.48242 8.7911 4.25557 9.96698C3.17301 9.92965 2.16511 9.63101 1.28787 9.14573C1.28787 9.16439 1.28787 9.20172 1.28787 9.22039C1.28787 12.3934 3.5463 15.0625 6.55133 15.6597C5.99139 15.809 5.41278 15.8837 4.81551 15.8837C4.38622 15.8837 3.97559 15.8464 3.58364 15.7717C4.42355 18.3848 6.84997 20.2886 9.72434 20.3259C7.48457 22.0804 4.64752 23.1443 1.56784 23.1443C1.04523 23.1443 0.522613 23.107 0 23.051C2.9117 24.9174 6.36468 26 10.0603 26C22.1364 26 28.7437 15.9957 28.7437 7.31658C28.7437 7.03661 28.7437 6.75664 28.7251 6.458C29.9943 5.58076 31.1141 4.42354 31.9914 3.09834Z" fill="white"/>
</svg>
